<?xml version="1.0" encoding="utf-8"?>
<!-- Generator: Adobe Illustrator 16.0.0, SVG Export Plug-In . SVG Version: 6.00 Build 0)  -->
<!DOCTYPE svg PUBLIC "-//W3C//DTD SVG 1.1//EN" "http://www.w3.org/Graphics/SVG/1.1/DTD/svg11.dtd">
<svg version="1.1" id="Layer_1" xmlns="http://www.w3.org/2000/svg" xmlns:xlink="http://www.w3.org/1999/xlink" x="0px" y="0px"
	 width="64px" height="64px" viewBox="0 0 64 64" enable-background="new 0 0 64 64" xml:space="preserve">
<g id="INBOX_1_" enable-background="new    ">
	<g id="INBOX">
		<g>
			<path d="M63.796,31.935l0.007-0.003l-8-21l-0.007,0.003C55.366,9.806,54.279,9,53,9H11c-1.28,0-2.365,0.806-2.796,1.935
				l-0.007-0.003l-8,21l0.007,0.003C0.077,32.267,0,32.624,0,33v19c0,1.657,1.343,3,3,3h58c1.657,0,3-1.343,3-3V33
				C64,32.624,63.923,32.267,63.796,31.935z M47,30c-1.657,0-3,1.343-3,3v3H20v-3c0-1.657-1.343-3-3-3H7.353l5.714-15h37.865
				l5.715,15H47z"/>
		</g>
	</g>
</g>
</svg>
