<?xml version="1.0" encoding="utf-8"?>
<!-- Generator: Adobe Illustrator 16.0.0, SVG Export Plug-In . SVG Version: 6.00 Build 0)  -->
<!DOCTYPE svg PUBLIC "-//W3C//DTD SVG 1.1//EN" "http://www.w3.org/Graphics/SVG/1.1/DTD/svg11.dtd">
<svg version="1.1" id="Layer_1" xmlns="http://www.w3.org/2000/svg" xmlns:xlink="http://www.w3.org/1999/xlink" x="0px" y="0px"
	 width="64px" height="64px" viewBox="0 0 64 64" enable-background="new 0 0 64 64" xml:space="preserve">
<g id="PEN_3_1_" enable-background="new    ">
	<g id="PEN_3">
		<g>
			<path d="M61.167,6.995L56.943,2.78c-1.166-1.164-3.057-1.164-4.223,0l-6.334,6.322l8.446,8.429l6.334-6.322
				C62.334,10.046,62.334,8.159,61.167,6.995z M53,57H7V11h33.357l6-6H4C2.343,5,1,6.343,1,8v52c0,1.657,1.343,3,3,3h52
				c1.657,0,3-1.343,3-3V17.813l-6,6V57z M52.721,19.639l-8.445-8.429L18.938,36.498l8.446,8.429L52.721,19.639z M13.998,49.84
				l11.258-2.806l-8.447-8.431L13.998,49.84z"/>
		</g>
	</g>
</g>
</svg>
