<?xml version="1.0" encoding="UTF-8" ?>
<svg viewBox="0 0 102 80" version="1.1" xmlns="http://www.w3.org/2000/svg" xmlns:xlink="http://www.w3.org/1999/xlink">
    <title>Envelope Icon</title>
    <description>Symbolizes an email action.</description>
    <path d="M101.1,70.4 C101.1,75.4 97,79.4 92.1,79.4 L9,79.4 C4,79.4 0,75.3 0,70.4 L0,9 C0,4 4.1,0 9,0 L92.1,0 C97.1,0 101.1,4.1 101.1,9 L101.1,70.4 L101.1,70.4 Z M92.1,7.2 L9,7.2 C8,7.2 7.2,8 7.2,9 C7.2,15.4 10.4,21 15.5,25 C23.1,31 30.6,36.9 38.2,42.9 C41.2,45.3 46.6,50.5 50.6,50.5 L50.6,50.5 C54.6,50.5 60,45.3 63,42.9 C70.5,36.9 78.1,30.9 85.7,25 C89.4,22.1 94,15.9 94,11.1 C93.9,9.7 94.3,7.2 92.1,7.2 L92.1,7.2 L92.1,7.2 Z M93.9,27 C92.7,28.4 91.4,29.6 90,30.7 C81.9,36.9 73.8,43.2 66,49.8 C61.7,53.4 56.5,57.7 50.6,57.7 L50.6,57.7 C44.7,57.7 39.5,53.4 35.2,49.8 C27.4,43.3 19.2,36.9 11.2,30.7 C9.7,29.6 8.4,28.4 7.2,27 L7.2,70.4 C7.2,71.4 8,72.2 9,72.2 L92.1,72.2 C93.1,72.2 93.9,71.4 93.9,70.4 L93.9,27 L93.9,27 Z" id="email-icon"></path>
</svg>