<?xml version="1.0" encoding="UTF-8" standalone="no"?>
<svg width="64px" height="38px" viewBox="0 0 64 38" version="1.1" xmlns="http://www.w3.org/2000/svg" xmlns:xlink="http://www.w3.org/1999/xlink" xmlns:sketch="http://www.bohemiancoding.com/sketch/ns">
    <title>Untitled 2 1</title>
    <description>Created with Sketch (http://www.bohemiancoding.com/sketch)</description>
    <defs></defs>
    <g id="Page-1" stroke="none" stroke-width="1" fill="none" fill-rule="evenodd" sketch:type="MSPage">
        <path d="M3.001,32 L61.001,32 C62.661,32 64.001,33.34 64.001,35 C64.001,36.66 62.661,38 61.001,38 L3.001,38 C1.341,38 0.001,36.66 0.001,35 C0.001,33.34 1.341,32 3.001,32 L3.001,32 Z M61.001,6 L3.001,6 C1.341,6 0.001,4.66 0.001,3 C0.001,1.34 1.341,0 3.001,0 L61.001,0 C62.661,0 64.001,1.34 64.001,3 C64.001,4.66 62.661,6 61.001,6 L61.001,6 Z M61.001,22 L3.001,22 C1.341,22 0.001,20.66 0.001,19 C0.001,17.34 1.341,16 3.001,16 L61.001,16 C62.661,16 64.001,17.34 64.001,19 C64.001,20.66 62.661,22 61.001,22 L61.001,22 Z" id="Fill-179" fill="#0A0B09" sketch:type="MSShapeGroup"></path>
    </g>
</svg>