<?xml version="1.0" encoding="UTF-8" standalone="no"?>
<svg width="50px" height="12px" viewBox="0 0 50 12" version="1.1" xmlns="http://www.w3.org/2000/svg" xmlns:xlink="http://www.w3.org/1999/xlink" xmlns:sketch="http://www.bohemiancoding.com/sketch/ns">
    <title>Untitled 2</title>
    <description>Created with Sketch (http://www.bohemiancoding.com/sketch)</description>
    <defs></defs>
    <g id="Page-1" stroke="none" stroke-width="1" fill="none" fill-rule="evenodd" sketch:type="MSPage">
        <path d="M6.001,12 C2.687,12 0,9.32 0,6 C0,2.69 2.687,0 6.001,0 C9.315,0 12.002,2.69 12.002,6 C12.002,9.32 9.315,12 6.001,12 L6.001,12 Z M25.001,12 C21.687,12 19,9.32 19,6 C19,2.69 21.687,0 25.001,0 C28.315,0 31.002,2.69 31.002,6 C31.002,9.32 28.315,12 25.001,12 L25.001,12 Z M44.001,12 C40.687,12 38,9.32 38,6 C38,2.69 40.687,0 44.001,0 C47.315,0 50.002,2.69 50.002,6 C50.002,9.32 47.315,12 44.001,12 L44.001,12 Z" id="Fill-180" fill="#0A0B09" sketch:type="MSShapeGroup"></path>
    </g>
</svg>