<?xml version="1.0" encoding="UTF-8" ?>
<svg viewBox="0 0 94 94" version="1.1" xmlns="http://www.w3.org/2000/svg" xmlns:xlink="http://www.w3.org/1999/xlink" >
    <title>Magnifying Glass Icon</title>
    <description>Symbolizes the search command</description>
    <path d="M81.6,91.8 L62.2,72.4 C55.7,77 47.7,79.4 39.7,79.4 C17.7,79.4 0,61.6 0,39.7 C0,17.8 17.8,0 39.7,0 C61.6,0 79.4,17.8 79.4,39.7 C79.4,47.7 77,55.6 72.4,62.2 L91.7,81.6 C93,82.9 93.8,84.8 93.8,86.7 C93.9,90.6 90.7,93.9 86.7,93.9 C84.8,93.9 82.9,93.1 81.6,91.8 Z M14.4,39.7 C14.4,53.7 25.7,65 39.7,65 C53.7,65 65,53.7 65,39.7 C65,25.7 53.7,14.4 39.7,14.4 C25.7,14.4 14.4,25.7 14.4,39.7 Z" id="search-icon"></path>
</svg>