<?xml version="1.0" encoding="UTF-8" ?>
<svg width="187px" height="25px" viewBox="0 0 187 25" version="1.1" xmlns="http://www.w3.org/2000/svg" xmlns:xlink="http://www.w3.org/1999/xlink">
    <title>MuckRock Trademark</title>
    <description>A graphic depiction of the company name, incorporating the company logo.</description>
    <path d="M26.25,23.86 L26.25,1.305 L18.38,1.305 L13.474,15.769 L13.346,15.769 L8.218,1.305 L0.476,1.305 L0.476,23.86 L5.605,23.86 L5.478,7.899 L5.574,7.899 L11.277,23.86 L15.1,23.86 L20.962,7.899 L21.058,7.899 L20.929,23.86 L26.25,23.86 L26.25,23.86 Z M60.958,0.516 C66.202,0.516 70.662,3.87 72.311,8.551 L66.621,8.551 C65.366,6.777 63.297,5.618 60.958,5.618 C57.129,5.618 54.025,8.722 54.025,12.551 C54.025,16.38 57.129,19.484 60.958,19.484 C63.296,19.484 65.365,18.326 66.621,16.551 L72.311,16.551 C70.662,21.231 66.202,24.586 60.958,24.586 C54.311,24.586 48.922,19.197 48.922,12.551 C48.922,5.904 54.311,0.516 60.958,0.516 L60.958,0.516 L60.958,0.516 Z M94.746,23.86 L84.456,11.69 L94.172,1.304 L87.355,1.304 L79.295,10.479 L79.199,10.479 L79.199,1.305 L73.847,1.305 L73.847,23.86 L79.199,23.86 L79.199,13.475 L79.263,13.475 L87.641,23.861 L94.746,23.861 L94.746,23.86 L94.746,23.86 Z M47.278,15.354 L47.278,1.305 L41.83,1.305 L41.83,14.909 C41.835,15.519 41.755,16.104 41.601,16.656 C41.447,17.214 41.203,17.707 40.869,18.142 C40.535,18.577 40.099,18.922 39.557,19.172 C39.02,19.427 38.362,19.555 37.592,19.56 C36.827,19.555 36.18,19.427 35.638,19.172 C35.102,18.922 34.661,18.577 34.327,18.142 C33.993,17.707 33.743,17.213 33.589,16.656 C33.43,16.104 33.355,15.519 33.355,14.909 L33.355,1.305 L27.94,1.305 L27.94,15.355 C27.945,16.713 28.168,17.952 28.609,19.061 C29.055,20.176 29.692,21.137 30.531,21.939 C31.365,22.746 32.374,23.368 33.558,23.803 C34.742,24.238 36.075,24.461 37.561,24.466 C39.038,24.461 40.375,24.237 41.565,23.803 C42.76,23.367 43.779,22.745 44.628,21.939 C45.483,21.137 46.136,20.176 46.587,19.061 C47.044,17.951 47.272,16.713 47.278,15.354 Z M114.943,23.86 L109.05,14.207 C110.021,13.904 110.855,13.475 111.55,12.907 C112.251,12.339 112.788,11.654 113.165,10.846 C113.536,10.039 113.727,9.131 113.732,8.122 C113.727,7.092 113.567,6.194 113.249,5.43 C112.937,4.665 112.501,4.017 111.942,3.492 C111.385,2.967 110.743,2.542 110.01,2.218 C109.277,1.894 108.496,1.66 107.662,1.517 C106.824,1.374 105.969,1.299 105.098,1.305 L96.496,1.305 L96.496,23.86 L101.849,23.86 L101.849,14.908 L103.697,14.908 L108.571,23.86 L114.943,23.86 Z M108.35,8.218 C108.344,8.786 108.222,9.254 107.979,9.614 C107.739,9.975 107.426,10.251 107.033,10.448 C106.64,10.644 106.216,10.777 105.759,10.851 C105.298,10.925 104.846,10.962 104.4,10.957 L101.82,10.957 L101.82,5.701 L104.719,5.701 C105.132,5.696 105.547,5.727 105.972,5.797 C106.397,5.866 106.784,5.988 107.146,6.169 C107.501,6.35 107.793,6.605 108.011,6.939 C108.232,7.268 108.344,7.698 108.35,8.218 Z M127.979,0.547 C134.625,0.547 140.014,5.935 140.014,12.582 C140.014,19.229 134.625,24.617 127.979,24.617 C121.333,24.617 115.944,19.229 115.944,12.582 C115.944,5.935 121.332,0.547 127.979,0.547 Z M124.266,5.498 L124.266,8.529 C123.379,8.673 122.493,8.818 121.607,8.963 L121.607,14.31 L121.607,19.654 C123.141,19.906 124.676,20.158 126.211,20.41 C127.746,20.663 129.281,20.916 130.817,21.17 L130.817,14.319 L130.817,7.465 C129.281,7.715 127.746,7.964 126.211,8.213 L125.415,8.342 L125.415,6.647 L132.354,5.647 L132.354,11.152 L132.354,13.211 C131.855,13.432 131.505,13.932 131.505,14.513 C131.505,15.298 132.142,15.935 132.928,15.935 C133.714,15.935 134.351,15.298 134.351,14.513 C134.351,13.932 134.002,13.432 133.503,13.211 L133.503,3.997 L124.266,5.498 L124.266,5.498 Z M123.823,15.854 L123.823,16.758 C124.619,16.815 125.415,16.871 126.211,16.928 C127.006,16.985 127.803,17.041 128.6,17.098 L128.6,16.071 C127.803,16.035 127.006,15.998 126.211,15.963 C125.415,15.926 124.619,15.889 123.823,15.854 L123.823,15.854 L123.823,15.854 Z M123.823,11.861 L123.823,12.766 C124.619,12.731 125.415,12.696 126.211,12.662 C127.006,12.628 127.803,12.595 128.6,12.56 L128.6,11.532 C127.803,11.587 127.006,11.641 126.211,11.696 C125.415,11.75 124.619,11.807 123.823,11.861 L123.823,11.861 L123.823,11.861 Z M123.823,13.856 L123.823,14.762 C124.619,14.773 125.415,14.784 126.211,14.794 C127.006,14.806 127.803,14.817 128.6,14.829 L128.6,13.8 C127.803,13.81 127.006,13.818 126.211,13.827 C125.415,13.838 124.619,13.848 123.823,13.856 L123.823,13.856 L123.823,13.856 Z M122.752,9.995 L122.752,14.31 L122.752,18.622 C123.904,18.768 125.059,18.918 126.211,19.066 C127.363,19.213 128.518,19.362 129.67,19.512 L129.67,14.316 L129.67,9.118 C128.518,9.264 127.363,9.41 126.211,9.555 C125.059,9.703 123.904,9.85 122.752,9.995 Z M153.092,0.516 C158.336,0.516 162.795,3.87 164.445,8.551 L158.755,8.551 C157.499,6.777 155.431,5.618 153.093,5.618 C149.263,5.618 146.159,8.722 146.159,12.551 C146.159,16.38 149.263,19.484 153.093,19.484 C155.431,19.484 157.499,18.326 158.755,16.551 L164.445,16.551 C162.796,21.231 158.337,24.586 153.092,24.586 C146.445,24.586 141.057,19.197 141.057,12.551 C141.057,5.904 146.444,0.516 153.092,0.516 Z M186.477,23.86 L176.186,11.69 L185.902,1.305 L179.085,1.305 L171.025,10.48 L170.93,10.48 L170.93,1.305 L165.578,1.305 L165.578,23.86 L170.93,23.86 L170.93,13.475 L170.993,13.475 L179.372,23.86 L186.477,23.86 Z" id="Trademark" fill="#000000" fill-rule="evenodd"></path>
</svg>