<svg width="56px" height="92px" viewBox="0 0 56 92" class="mascot icon">
    <title>Mascot Icon</title>
    <path d="M28.7663539,7.92666444 L30.5387215,22.3250932 C32.7516054,22.9041695 34.6654885,24.2223512 36.0007324,26 L42.9940911,26 C50.1770562,26 56,31.8187196 56,39 C56,46.1797017 50.1786248,52 42.9940911,52 L13.0059089,52 C5.82294376,52 0,46.1812804 0,39 C0,31.8202983 5.82137524,26 13.0059089,26 L19.9992676,26 C21.3707034,24.1741678 23.3525718,22.833048 25.6418736,22.2796399 L27.4050285,7.95605297 C25.4780656,7.66870148 24,6.0069611 24,4 C24,1.790861 25.790861,0 28,0 C30.209139,0 32,1.790861 32,4 C32,5.94703562 30.6088832,7.56915851 28.7663539,7.92666444 Z M0,56 L56,56 L56,92 L0,92 L0,56 Z M12,61 L44,61 L44,87 L12,87 L12,61 Z M39,77 L26.7777778,77 L26.7777778,78 L39,78 L39,77 Z M25.1481481,77 L17,77 L17,78 L25.1481481,78 L25.1481481,77 Z M37,73 L28.8518519,73 L28.8518519,74 L37,74 L37,73 Z M37,79 L28.8518519,79 L28.8518519,80 L37,80 L37,79 Z M31,71 L22.8518519,71 L22.8518519,72 L31,72 L31,71 Z M23.1111111,75.0526316 L17,75.0526316 L17,76.0526316 L23.1111111,76.0526316 L23.1111111,75.0526316 Z M23.1111111,69 L17,69 L17,70 L23.1111111,70 L23.1111111,69 Z M39,67 L32.8888889,67 L32.8888889,68 L39,68 L39,67 Z M28,75.0526316 L24.7407407,75.0526316 L24.7407407,76.0526316 L28,76.0526316 L28,75.0526316 Z M34,69 L30.7407407,69 L30.7407407,70 L34,70 L34,69 Z M26.3703704,67 L23.1111111,67 L23.1111111,68 L26.3703704,68 L26.3703704,67 Z M36,71 L32.7407407,71 L32.7407407,72 L36,72 L36,71 Z M39,75.0526316 L35.7407407,75.0526316 L35.7407407,76.0526316 L39,76.0526316 L39,75.0526316 Z M39,69 L35.7407407,69 L35.7407407,70 L39,70 L39,69 Z M31.2592593,67 L28,67 L28,68 L31.2592593,68 L31.2592593,67 Z M27,73 L23.7407407,73 L23.7407407,74 L27,74 L27,73 Z M27,79 L23.7407407,79 L23.7407407,80 L27,80 L27,79 Z M34.1111111,75.0526316 L29.6296296,75.0526316 L29.6296296,76.0526316 L34.1111111,76.0526316 L34.1111111,75.0526316 Z M21.4814815,67 L17,67 L17,68 L21.4814815,68 L21.4814815,67 Z M29,69 L24.5185185,69 L24.5185185,70 L29,70 L29,69 Z M21.4814815,73 L17,73 L17,74 L21.4814815,74 L21.4814815,73 Z M21.4814815,79 L17,79 L17,80 L21.4814815,80 L21.4814815,79 Z M21.4814815,71 L17,71 L17,72 L21.4814815,72 L21.4814815,71 Z M40,43 C42.209139,43 44,41.209139 44,39 C44,36.790861 42.209139,35 40,35 C37.790861,35 36,36.790861 36,39 C36,41.209139 37.790861,43 40,43 Z M16,35 C13.790861,35 12,36.790861 12,39 C12,41.209139 13.790861,43 16,43 C18.209139,43 20,41.209139 20,39 C20,36.790861 18.209139,35 16,35 Z"></path>
</svg>
