<svg viewBox="0 0 225 30">
    <title>MuckRock Logotype</title>
    <desc>A boldfaced logotype that spells MuckRock.</desc>
    <g fill-rule="evenodd">
        <path id="K-2" d="M215.978459,28.4616707 L205.629261,15.6722269 L205.55056,15.6722269 L205.55056,28.4616707 L198.939665,28.4616707 L198.939665,0.68582339 L205.55056,0.68582339 L205.55056,11.9844731 L205.668611,11.9844731 L215.624304,0.68582339 L224.045325,0.68582339 L212.043403,13.4752672 L224.753635,28.4616707 L215.978459,28.4616707 Z"></path>
        <path id="C-2" d="M197.218733,24.8652349 C195.985743,26.2883715 194.464203,27.4150044 192.654068,28.2451675 C190.843933,29.0753305 188.758374,29.4904058 186.397328,29.4904058 C184.246153,29.4904058 182.25897,29.134627 180.435718,28.4230587 C178.612466,27.7114904 177.0319,26.7034504 175.693975,25.3989085 C174.356049,24.0943666 173.306711,22.5328929 172.545929,20.7144405 C171.785148,18.8959882 171.404763,16.8930852 171.404763,14.7056715 C171.404763,12.4655491 171.791706,10.4362921 172.565605,8.61783976 C173.339503,6.79938742 174.408516,5.25109071 175.772676,3.97290319 C177.136835,2.69471568 178.737076,1.71302968 180.573445,1.02781575 C182.409813,0.342601824 184.390439,0 186.51538,0 C188.482918,0 190.417635,0.349190321 192.319588,1.04758144 C194.221542,1.74597256 195.762757,2.76718953 196.943279,4.11126301 L192.378614,8.69690251 C191.749002,7.82720791 190.922648,7.18153524 189.899528,6.75986513 C188.876409,6.33819502 187.827071,6.12736313 186.751483,6.12736313 C185.57096,6.12736313 184.488831,6.34478352 183.505062,6.77963082 C182.521293,7.21447812 181.675264,7.81403131 180.96695,8.57830839 C180.258637,9.34258546 179.707734,10.2452095 179.314227,11.2862076 C178.920719,12.3272057 178.723968,13.4670156 178.723968,14.7056715 C178.723968,15.9706818 178.920719,17.1302573 179.314227,18.1844325 C179.707734,19.2386078 180.252078,20.1412318 180.947275,20.8923317 C181.642472,21.6434316 182.475384,22.2298078 183.446036,22.6514779 C184.416688,23.073148 185.479143,23.2839799 186.633432,23.2839799 C187.971357,23.2839799 189.138746,23.02044 190.135632,22.4933524 C191.132518,21.9662648 191.932638,21.2810611 192.536016,20.4377209 L197.218733,24.8652349 Z"></path>
        <path id="Logo-O" d="M154.36819,0 C162.636021,0 169.339645,6.67794018 169.339645,14.9164439 C169.339645,23.1549476 162.636021,29.8333175 154.36819,29.8333175 C146.099064,29.8333175 139.39544,23.1553773 139.39544,14.9168736 C139.39544,6.67836985 146.099064,0 154.36819,0 Z M149.926289,5.97275198 L149.926289,9.72529111 C148.825166,9.9038608 147.723613,10.0828598 146.623352,10.262288 L146.623352,16.8831028 L146.623352,23.4991959 C148.530184,23.8116928 150.437017,24.1237606 152.34385,24.4358283 C154.249391,24.7487545 156.157515,25.06211 158.065209,25.3754654 L158.065209,16.8929757 L158.065209,8.40662259 C156.157515,8.71568552 154.249391,9.02388995 152.34385,9.33295288 L151.354691,9.49306465 L151.354691,7.39529999 L159.975487,6.15647273 L159.975487,12.9725982 L159.975487,15.5223674 C159.35581,15.7949437 158.920873,16.4139281 158.920873,17.1342165 C158.920873,18.1060477 159.711941,18.8950167 160.688612,18.8950167 C161.664851,18.8950167 162.45592,18.1060477 162.45592,17.1342165 C162.45592,16.4139281 162.022706,15.7949437 161.403028,15.5223674 L161.403028,4.11494034 L149.926289,5.97275198 Z M148.000097,11.699986 L148.000097,16.9673585 L148.000097,22.2313458 C149.434062,22.4103383 150.869753,22.5931391 152.302856,22.7738242 C153.735528,22.9540862 155.170788,23.1347713 156.604753,23.3179953 L156.604753,16.9753984 L156.604753,10.6302626 C155.171219,10.8079856 153.73596,10.9865549 152.302856,11.164278 C150.869322,11.3428473 149.433631,11.522263 148.000097,11.699986 Z M149.376842,18.8601432 L149.376842,19.8563839 C150.35147,19.9198436 151.326523,19.9821564 152.302,20.044087 C153.275779,20.1067821 154.251681,20.1687126 155.228008,20.23179 L155.228008,19.0990728 C154.251681,19.0589326 153.276204,19.0176456 152.302,18.9790346 C151.326947,18.9400413 150.35147,18.8987543 149.376842,18.8601432 Z M149.376842,13.7394057 L149.376842,14.7452029 C150.35147,14.7066518 151.326523,14.6677153 152.302,14.6295497 C153.275779,14.5917697 154.251681,14.5547606 155.228008,14.5162096 L155.228008,13.3735561 C154.251681,13.4344668 153.276204,13.4946064 152.302,13.5551316 C151.326947,13.6160423 150.35147,13.678495 149.376842,13.7394057 Z M149.376842,16.5341417 L149.376842,17.7413202 C150.35147,17.7556419 151.326523,17.7708875 152.302,17.7852092 C153.275779,17.7999929 154.251681,17.8157005 155.228008,17.8314082 L155.228008,16.4597614 C154.251681,16.4726971 153.276204,16.4828608 152.302,16.4962585 C151.326947,16.5087323 150.35147,16.52213 149.376842,16.5341417 Z"></path>
        <path id="R" d="M131.429816,28.4616707 L125.336114,17.4376409 L123.026083,17.4376409 L123.026083,28.4616707 L116.33496,28.4616707 L116.33496,0.68582339 L127.088551,0.68582339 C128.442714,0.68582339 129.763667,0.823131997 131.051449,1.09775333 C132.339231,1.37237466 133.494235,1.83660852 134.516495,2.49046884 C135.538756,3.14432915 136.355224,4.00741182 136.965925,5.07974274 C137.576626,6.15207366 137.881971,7.48592869 137.881971,9.08134786 C137.881971,10.9644656 137.364211,12.5467838 136.328675,13.82835 C135.293139,15.1099162 133.859341,16.0253069 132.027238,16.5745496 L139.39544,28.4616707 L131.429816,28.4616707 Z M131.134969,9.29186781 C131.134969,8.63375117 130.993938,8.10068468 130.711872,7.69265236 C130.429806,7.28462004 130.067155,6.96872879 129.623908,6.74496913 C129.180661,6.52120947 128.683694,6.36984491 128.132993,6.29087092 C127.582293,6.21189692 127.051747,6.17241051 126.541342,6.17241051 L122.874499,6.17241051 L122.874499,12.6877327 L126.138392,12.6877327 C126.702525,12.6877327 127.28008,12.6416652 127.871076,12.5495289 C128.462072,12.4573926 128.999333,12.2928659 129.482875,12.0559439 C129.966417,11.8190219 130.362647,11.4768064 130.671577,11.0292871 C130.980507,10.5817678 131.134969,10.0026338 131.134969,9.29186781 Z"></path>
        <path id="K-1" d="M106.527225,28.4616707 L96.1780265,15.6722269 L96.0993254,15.6722269 L96.0993254,28.4616707 L89.4884305,28.4616707 L89.4884305,0.68582339 L96.0993254,0.68582339 L96.0993254,11.9844731 L96.217377,11.9844731 L106.17307,0.68582339 L114.594091,0.68582339 L102.592169,13.4752672 L115.302401,28.4616707 L106.527225,28.4616707 Z"></path>
        <path id="C-1" d="M88.1116854,24.8652349 C86.8786949,26.2883715 85.357155,27.4150044 83.5470199,28.2451675 C81.7368849,29.0753305 79.6513259,29.4904058 77.2902802,29.4904058 C75.1391052,29.4904058 73.1519216,29.134627 71.3286696,28.4230587 C69.5054177,27.7114904 67.9248525,26.7034504 66.5869266,25.3989085 C65.2490007,24.0943666 64.1996628,22.5328929 63.4388815,20.7144405 C62.6781001,18.8959882 62.2977151,16.8930852 62.2977151,14.7056715 C62.2977151,12.4655491 62.6846584,10.4362921 63.4585567,8.61783976 C64.232455,6.79938742 65.301468,5.25109071 66.6656278,3.97290319 C68.0297875,2.69471568 69.6300278,1.71302968 71.4663966,1.02781575 C73.3027655,0.342601824 75.2833908,0 77.4083319,0 C79.3758699,0 81.3105867,0.349190321 83.2125401,1.04758144 C85.1144936,1.74597256 86.6557086,2.76718953 87.8362315,4.11126301 L83.271566,8.69690251 C82.6419538,7.82720791 81.8156002,7.18153524 80.7924804,6.75986513 C79.7693606,6.33819502 78.7200227,6.12736313 77.6444353,6.12736313 C76.4639124,6.12736313 75.3817827,6.34478352 74.3980137,6.77963082 C73.4142447,7.21447812 72.568216,7.81403131 71.8599023,8.57830839 C71.1515886,9.34258546 70.6006862,10.2452095 70.2071786,11.2862076 C69.8136709,12.3272057 69.6169201,13.4670156 69.6169201,14.7056715 C69.6169201,15.9706818 69.8136709,17.1302573 70.2071786,18.1844325 C70.6006862,19.2386078 71.1450302,20.1412318 71.840227,20.8923317 C72.5354238,21.6434316 73.3683357,22.2298078 74.3389878,22.6514779 C75.3096399,23.073148 76.3720946,23.2839799 77.5263836,23.2839799 C78.8643094,23.2839799 80.0316979,23.02044 81.0285838,22.4933524 C82.0254698,21.9662648 82.8255899,21.2810611 83.4289682,20.4377209 L88.1116854,24.8652349 Z"></path>
        <path id="U" d="M59.8884112,17.9507433 C59.8884112,19.6211294 59.6039548,21.1414189 59.0350334,22.5116575 C58.466112,23.8818961 57.6524343,25.0563687 56.5939759,26.0351106 C55.5355175,27.0138524 54.2587712,27.7772596 52.7636987,28.325355 C51.2686262,28.8734505 49.6081945,29.1474941 47.7823537,29.1474941 C45.9300515,29.1474941 44.2630045,28.8734505 42.7811627,28.325355 C41.299321,27.7772596 40.0424205,27.0138524 39.0104235,26.0351106 C37.9784266,25.0563687 37.1845947,23.8818961 36.628904,22.5116575 C36.0732134,21.1414189 35.7953722,19.6211294 35.7953722,17.9507433 L35.7953722,0.68582339 L42.5430108,0.68582339 L42.5430108,17.4026506 C42.5430108,18.1595443 42.6422398,18.8772776 42.8407007,19.5558719 C43.0391617,20.2344663 43.3434639,20.8412771 43.7536165,21.3763227 C44.1637692,21.9113682 44.706221,22.3354833 45.3809882,22.6486807 C46.0557554,22.9618781 46.8694331,23.1184744 47.8220457,23.1184744 C48.7746583,23.1184744 49.588336,22.9618781 50.2631032,22.6486807 C50.9378704,22.3354833 51.4869375,21.9113682 51.9103208,21.3763227 C52.3337042,20.8412771 52.6380064,20.2344663 52.8232367,19.5558719 C53.0084669,18.8772776 53.1010806,18.1595443 53.1010806,17.4026506 L53.1010806,0.68582339 L59.8884112,0.68582339 L59.8884112,17.9507433 Z"></path>
        <path id="M" d="M25.4017126,28.4616707 L25.5599787,8.8067279 L25.4412791,8.8067279 L18.1610375,28.4616707 L13.4130539,28.4616707 L6.33064489,8.8067279 L6.2119453,8.8067279 L6.37021142,28.4616707 L-3.55271368e-15,28.4616707 L-3.55271368e-15,0.68582339 L9.61466693,0.68582339 L15.9848783,18.4968893 L16.1431445,18.4968893 L22.2363902,0.68582339 L32.0093232,0.68582339 L32.0093232,28.4616707 L25.4017126,28.4616707 Z"></path>
    </g>
</svg>
