<?xml version="1.0" encoding="UTF-8" standalone="no"?>
<svg width="32px" height="32px" viewBox="0 0 32 32" version="1.1" xmlns="http://www.w3.org/2000/svg" xmlns:xlink="http://www.w3.org/1999/xlink" xmlns:sketch="http://www.bohemiancoding.com/sketch/ns">
    <!-- Generator: Sketch 3.5.2 (25235) - http://www.bohemiancoding.com/sketch -->
    <title>Circle BW Logo Copy</title>
    <desc>Created with Sketch.</desc>
    <defs></defs>
    <g id="Fundamentals" stroke="none" stroke-width="1" fill="none" fill-rule="evenodd" sketch:type="MSPage">
        <g id="Circle-BW-Logo-Copy" sketch:type="MSArtboardGroup" fill="#333C47">
            <path d="M8.95548063,2.79626078 L8.95548063,8.44434574 C7.30343839,8.71311757 5.65075007,8.98253548 4,9.25259949 L4,19.217832 L4,29.1759575 C6.86086939,29.6463082 9.72173878,30.1160128 12.5826082,30.5857175 C15.4415393,31.0567142 18.3043469,31.5283571 21.1665085,32 L21.1665085,19.232692 L21.1665085,6.45956914 C18.3043469,6.92475116 15.4415393,7.388641 12.5826082,7.85382301 L11.0985483,8.09481314 L11.0985483,4.93739022 L24.0325466,3.07278564 L24.0325466,13.3319873 L24.0325466,17.1697389 C23.1028286,17.5800036 22.4502817,18.5116598 22.4502817,19.5957924 C22.4502817,21.0585314 23.6371419,22.2460377 25.1024652,22.2460377 C26.5671425,22.2460377 27.7540027,21.0585314 27.7540027,19.5957924 C27.7540027,18.5116598 27.1040401,17.5800036 26.1743221,17.1697389 L26.1743221,0 L8.95548063,2.79626078 L8.95548063,2.79626078 Z M8.13172081,22.0974379 L8.13172081,23.7811383 C9.61448848,23.8883886 11.0979022,23.9937007 12.5819621,24.0983666 C14.0634376,24.2043247 15.5481435,24.3089907 17.0334955,24.4155949 L17.0334955,22.5012417 C15.5481435,22.4334027 14.0640837,22.3636254 12.5819621,22.2983707 C11.0985483,22.2324699 9.61448848,22.1626926 8.13172081,22.0974379 L8.13172081,22.0974379 L8.13172081,22.0974379 Z M8.13172081,14.65711 L8.13172081,16.3427487 C9.61448848,16.2781401 11.0979022,16.2128854 12.5819621,16.1489229 C14.0634376,16.0856064 15.5481435,16.0235821 17.0334955,15.9589735 L17.0334955,14.0439742 C15.5481435,14.1460558 14.0640837,14.2468453 12.5819621,14.3482808 C11.0985483,14.4503624 9.61448848,14.5550284 8.13172081,14.65711 L8.13172081,14.65711 L8.13172081,14.65711 Z M8.13172081,18.3759817 L8.13172081,20.0642048 C9.61448848,20.0842335 11.0979022,20.1055543 12.5819621,20.125583 C14.0634376,20.1462577 15.5481435,20.1682247 17.0334955,20.1901916 L17.0334955,18.2719619 C15.5481435,18.2900523 14.0640837,18.3042662 12.5819621,18.3230027 C11.0985483,18.340447 9.61448848,18.3591835 8.13172081,18.3759817 L8.13172081,18.3759817 L8.13172081,18.3759817 Z M6.13466858,11.1785822 L6.13466858,19.2210624 L6.13466858,27.2583739 C8.28355105,27.5316683 10.4350179,27.8107775 12.5826082,28.0866563 C14.7295524,28.361889 16.8803731,28.6377678 19.0292556,28.9175231 L19.0292556,19.233338 L19.0292556,9.5452765 C16.8810192,9.81663268 14.7301985,10.089281 12.5826082,10.3606372 C10.4343718,10.6332855 8.28290496,10.9072261 6.13466858,11.1785822 L6.13466858,11.1785822 L6.13466858,11.1785822 Z" id="Black/White" sketch:type="MSShapeGroup"></path>
        </g>
    </g>
</svg>