<?xml version="1.0" encoding="utf-8"?>
<!-- Generator: Adobe Illustrator 16.0.0, SVG Export Plug-In . SVG Version: 6.00 Build 0)  -->
<!DOCTYPE svg PUBLIC "-//W3C//DTD SVG 1.1//EN" "http://www.w3.org/Graphics/SVG/1.1/DTD/svg11.dtd">
<svg version="1.1" id="Layer_1" xmlns="http://www.w3.org/2000/svg" xmlns:xlink="http://www.w3.org/1999/xlink" x="0px" y="0px"
	 width="64px" height="64px" viewBox="0 0 64 64" enable-background="new 0 0 64 64" xml:space="preserve">
<g id="DOCUMENT__x2F__ADD_1_" enable-background="new    ">
	<g id="DOCUMENT__x2F__ADD">
		<g>
			<path d="M31,22.008h19L28,1.964v17.037C28,20.662,29.343,22.008,31,22.008z M56,51h-3v-3c0-1.657-1.343-3-3-3s-3,1.343-3,3v3h-3
				c-1.657,0-3,1.343-3,3s1.343,3,3,3h3v3c0,1.657,1.343,3,3,3s3-1.343,3-3v-3h3c1.657,0,3-1.343,3-3S57.657,51,56,51z M38,54
				c0-3.314,2.686-6,6-6c0-3.314,2.686-6,6-6V25.014H31c-3.314,0-6-2.692-6-6.013V1.964h-9V2H9C7.343,2,6,3.343,6,5v52
				c0,1.657,1.343,3,3,3h35l0,0C40.686,60,38,57.314,38,54z"/>
		</g>
	</g>
</g>
</svg>
