<?xml version="1.0" encoding="UTF-8" ?>
<svg viewBox="0 0 57 57" version="1.1" xmlns="http://www.w3.org/2000/svg" xmlns:xlink="http://www.w3.org/1999/xlink">
    <title>RSS Icon</title>
    <description>Symbolizes a link to a list of RSS feeds</description>
    <path d="M1,0.8 C0.7,1.1 0.4,1.6 0.4,2.1 L0.4,9.3 C0.4,10.3 1.2,11.1 2.2,11.1 C25.6,11.9 44.7,31 45.6,54.5 C45.6,55.5 46.4,56.3 47.4,56.3 L54.6,56.3 C55.1,56.3 55.6,56.1 55.9,55.7 C56.3,55.4 56.5,54.9 56.4,54.4 C55.4,25.1 31.7,1.3 2.3,0.3 C1.8,0.3 1.4,0.4 1,0.8 Z M1.1,22.5 C0.8,22.8 0.5,23.3 0.5,23.8 L0.5,31 C0.5,32 1.2,32.8 2.2,32.8 C13.8,33.6 23.1,43 23.9,54.5 C23.9,55.5 24.7,56.2 25.7,56.2 L32.9,56.2 C33.4,56.2 33.9,56 34.2,55.6 C34.5,55.3 34.8,54.8 34.7,54.3 C33.8,36.8 19.9,23 2.4,22 C1.9,22 1.4,22.2 1.1,22.5 Z M0.5,49 C0.5,53 3.7,56.2 7.7,56.2 C11.7,56.2 14.9,53 14.9,49 C14.9,45 11.7,41.8 7.7,41.8 C3.7,41.8 0.5,45 0.5,49 Z" id="rss-icon"></path>
</svg>