<?xml version="1.0" encoding="UTF-8" standalone="no"?>
<svg width="384px" height="384px" viewBox="0 0 384 384" version="1.1" xmlns="http://www.w3.org/2000/svg" xmlns:xlink="http://www.w3.org/1999/xlink" xmlns:sketch="http://www.bohemiancoding.com/sketch/ns">
    <title>Untitled</title>
    <description>Created with Sketch (http://www.bohemiancoding.com/sketch)</description>
    <defs></defs>
    <g id="Page-1" stroke="none" stroke-width="1" fill="none" fill-rule="evenodd" sketch:type="MSPage">
        <g id="notification" sketch:type="MSLayerGroup" stroke-width="3" stroke="#000000" fill="#000000">
            <g id="Group" sketch:type="MSShapeGroup">
                <path d="M317.7,161.9 C317.7,64.3 265.2,31.1 216.1,23.7 C216.1,23.2 216.2,22.7 216.2,22.1 C216.2,9.8 205.3,2.84217094e-14 192,2.84217094e-14 C178.7,2.84217094e-14 168.2,9.8 168.2,22.1 C168.2,22.7 168.2,23.2 168.3,23.7 C119.1,31.2 66.3,64.5 66.3,162.1 C66.3,275.9 38,288.1 5.68434189e-14,320.1 L384,320.1 C346.2,288 317.7,275.7 317.7,161.9 L317.7,161.9 Z" id="Shape"></path>
                <path d="M192.2,384 C219,384 241,364.1 243.9,341 L140.5,341 C143.3,364.1 165.4,384 192.2,384 L192.2,384 Z" id="Shape"></path>
            </g>
        </g>
    </g>
</svg>