<svg width="16px" height="16px" viewBox="0 0 16 16" class="account icon">
    <title>Account</title>
    <path d="M13.8115232,13.4978636 C13.9345653,13.019077 14,12.5171801 14,12 C14,8.6862915 11.3137085,6 8,6 C4.6862915,6 2,8.6862915 2,12 C2,12.5171801 2.06543469,13.019077 2.18847678,13.4978636 C3.64667996,15.0387275 5.71108137,16 8,16 C10.2889186,16 12.35332,15.0387275 13.8115232,13.4978636 Z M8,6 C9.65685425,6 11,4.65685425 11,3 C11,1.34314575 9.65685425,0 8,0 C6.34314575,0 5,1.34314575 5,3 C5,4.65685425 6.34314575,6 8,6 Z" id="Combined-Shape"></path>
</svg>
