<svg width="17" height="17" viewBox="0 0 17 17" xmlns="http://www.w3.org/2000/svg">
    <path fill-rule="evenodd" clip-rule="evenodd" d="M5.25 3.42236C5.11193 3.42236 5 3.53429 5 3.67236V13.5832L8.02322 11.0935C8.30016 10.8653 8.69984 10.8653 8.97678 11.0935L12 13.5832V3.67236C12 3.53429 11.8881 3.42236 11.75 3.42236H5.25ZM3.5 3.67236C3.5 2.70586 4.2835 1.92236 5.25 1.92236H11.75C12.7165 1.92236 13.5 2.70586 13.5 3.67236V15.1724C13.5 15.4626 13.3326 15.7268 13.0701 15.8507C12.8076 15.9745 12.4973 15.9358 12.2732 15.7513L8.5 12.644L4.72678 15.7513C4.50275 15.9358 4.19238 15.9745 3.92991 15.8507C3.66744 15.7268 3.5 15.4626 3.5 15.1724V3.67236Z" />
</svg>
