<svg width="17" height="16" viewBox="0 0 17 16" xmlns="http://www.w3.org/2000/svg">
    <path fill-rule="evenodd" clip-rule="evenodd" d="M0.5 1.75C0.5 1.33579 0.835786 1 1.25 1H5.50286C6.73012 1 7.81979 1.58958 8.50393 2.50106C9.18803 1.58962 10.2777 1 11.505 1H15.75C16.1642 1 16.5 1.33579 16.5 1.75V12.25C16.5 12.6642 16.1642 13 15.75 13H11.2426C10.6459 13 10.0736 13.2371 9.65165 13.659L9.03033 14.2803C8.73744 14.5732 8.26256 14.5732 7.96967 14.2803L7.34835 13.659C6.92639 13.2371 6.3541 13 5.75736 13H1.25C0.835786 13 0.5 12.6642 0.5 12.25V1.75ZM9.255 4.75C9.255 3.50736 10.2624 2.5 11.505 2.5H15V11.5H11.2426C10.5326 11.5 9.84339 11.7014 9.25124 12.0724L9.255 4.75ZM7.75124 12.074L7.755 7.00071L7.75285 4.74786C7.75167 3.50605 6.74466 2.5 5.50286 2.5H2V11.5H5.75736C6.46836 11.5 7.15854 11.7019 7.75124 12.074Z" />
</svg>
