<svg width="16" height="17" viewBox="0 0 16 17" xmlns="http://www.w3.org/2000/svg">
    <path fill-rule="evenodd" clip-rule="evenodd" d="M4.75 0.922363C5.16421 0.922363 5.5 1.25815 5.5 1.67236V2.92236H10.5V1.67236C10.5 1.25815 10.8358 0.922363 11.25 0.922363C11.6642 0.922363 12 1.25815 12 1.67236V2.92236H13.25C14.2165 2.92236 15 3.70587 15 4.67236V15.1724C15 16.1389 14.2165 16.9224 13.25 16.9224H2.75C1.7835 16.9224 1 16.1389 1 15.1724V4.67236C1 3.70586 1.7835 2.92236 2.75 2.92236H4V1.67236C4 1.25815 4.33579 0.922363 4.75 0.922363ZM13.25 4.42236C13.3881 4.42236 13.5 4.53429 13.5 4.67236V6.92236H2.5V4.67236C2.5 4.53429 2.61193 4.42236 2.75 4.42236H13.25ZM2.5 8.42236V15.1724C2.5 15.3104 2.61193 15.4224 2.75 15.4224H13.25C13.3881 15.4224 13.5 15.3104 13.5 15.1724V8.42236H2.5Z" />
</svg>
