<svg width="16" height="16" viewBox="0 0 16 16" xmlns="http://www.w3.org/2000/svg" fill-rule="evenodd">
    <path d="M9.53358 14.2199C9.18229 14.442 8.8886 14.6142 8.6812 14.7317C8.56998 14.7946 8.45831 14.8568 8.34501 14.9159C8.23695 14.9718 8.11847 14.9998 8 14.9998C7.88153 14.9998 7.76305 14.9718 7.655 14.9159C7.54162 14.857 7.42999 14.7946 7.3188 14.7317C7.1114 14.6142 6.81771 14.442 6.46642 14.2199C5.76538 13.7767 4.82717 13.13 3.8853 12.3181C2.04459 10.7312 0 8.35031 0 5.5C0 2.83579 2.08579 1 4.25 1C5.79736 1 7.15289 1.80151 8 3.01995C8.84711 1.80151 10.2026 1 11.75 1C13.9142 1 16 2.83579 16 5.5C16 8.35031 13.9554 10.7312 12.1147 12.3181C11.1728 13.13 10.2346 13.7767 9.53358 14.2199Z" />
</svg>
