<svg width="16px" height="16px" viewBox="0 0 16 16" class="embed icon">
    <title>Embed</title>
    <desc>Opening and closing brackets with a diagonal slash through the middle.</desc>
    <rect transform="translate(8.648250, 8.024551) scale(-1, 1) rotate(-285.000000) translate(-8.648250, -8.024551) " x="2.14824962" y="7.02455087" width="13" height="2"></rect>
    <path d="M1.24264069,5.24264069 L7.24264069,5.24264069 L7.24264069,11.2426407 L1.24264069,11.2426407 L1.24264069,5.24264069 Z M3.24264069,7.24264069 L7.24264069,7.24264069 L7.24264069,11.2426407 L3.24264069,11.2426407 L3.24264069,7.24264069 Z" transform="translate(4.242641, 8.242641) scale(-1, 1) rotate(-225.000000) translate(-4.242641, -8.242641) "></path>
    <path d="M8.74264069,5.24264069 L14.7426407,5.24264069 L14.7426407,11.2426407 L8.74264069,11.2426407 L8.74264069,5.24264069 Z M10.7426407,7.24264069 L14.7426407,7.24264069 L14.7426407,11.2426407 L10.7426407,11.2426407 L10.7426407,7.24264069 Z" transform="translate(11.742641, 8.242641) rotate(-225.000000) translate(-11.742641, -8.242641) "></path>
</svg>
