<svg viewBox="0 0 16 16" class="info icon">
    <title>Info</title>
    <desc>A lowercase i</desc>
    <path d="M8,16 C12.418278,16 16,12.418278 16,8 C16,3.581722 12.418278,0 8,0 C3.581722,0 0,3.581722 0,8 C0,12.418278 3.581722,16 8,16 Z M8,14 C11.3137085,14 14,11.3137085 14,8 C14,4.6862915 11.3137085,2 8,2 C4.6862915,2 2,4.6862915 2,8 C2,11.3137085 4.6862915,14 8,14 Z"></path>
    <path d="M7,7 L9,7 L9,12 L7,12 L7,7 Z M6,7 L7,7 L7,8 L6,8 L6,7 Z M6,11 L7,11 L7,12 L6,12 L6,11 Z M9,11 L10,11 L10,12 L9,12 L9,11 Z"></path>
    <circle cx="8" cy="5" r="1"></circle>
</svg>
