<svg width="16" height="16" viewBox="0 0 16 16" xmlns="http://www.w3.org/2000/svg">
    <path fill-rule="evenodd" clip-rule="evenodd" d="M5.72314 0.79253C5.89699 0.917831 6 1.11906 6 1.33336C6 1.86379 6.21071 2.3725 6.58579 2.74757C6.96086 3.12265 7.46957 3.33336 8 3.33336C8.53043 3.33336 9.03914 3.12264 9.41421 2.74757C9.78929 2.3725 10 1.86379 10 1.33336C10 1.11906 10.103 0.917831 10.2769 0.79253C10.4507 0.66723 10.6742 0.633137 10.8775 0.700903L13.7974 1.6742C13.7974 1.67421 13.7975 1.67423 13.7975 1.67424C14.2501 1.82504 14.6338 2.13265 14.8795 2.54155C15.1252 2.95044 15.2167 3.43368 15.1374 3.90407C15.1374 3.90411 15.1374 3.90416 15.1374 3.9042L14.7514 6.21336C14.7513 6.21398 14.7512 6.21461 14.7511 6.21523C14.7 6.52771 14.5394 6.81183 14.2979 7.01671C14.0562 7.22174 13.7495 7.334 13.4326 7.33336H12.6667V13.3334C12.6667 13.8638 12.456 14.3725 12.0809 14.7476C11.7058 15.1226 11.1971 15.3334 10.6667 15.3334H5.33333C4.23181 15.3334 3.33333 14.4349 3.33333 13.3334V7.33336H2.56742C2.25053 7.334 1.94376 7.22174 1.70211 7.01671C1.46065 6.81183 1.3 6.52772 1.2489 6.21525L0.862613 3.9042C0.862586 3.90404 0.862559 3.90388 0.862532 3.90372C0.783354 3.43344 0.874829 2.95033 1.12047 2.54155C1.36617 2.13265 1.74994 1.82504 2.20252 1.67424C2.20253 1.67423 2.20254 1.67423 2.20256 1.67422C2.20258 1.67422 2.2026 1.67421 2.20261 1.6742L5.12252 0.700903C5.32581 0.633137 5.5493 0.66723 5.72314 0.79253ZM2.41334 2.30672L2.62405 2.93918C2.47318 2.98944 2.34525 3.09199 2.26334 3.22829C2.18143 3.3646 2.15095 3.5257 2.17739 3.68251L2.56421 5.99679C2.56439 5.99787 2.56457 5.99895 2.56475 6.00003L2.56587 6.00003L4 6.00003C4.36819 6.00003 4.66667 6.2985 4.66667 6.66669V13.3334C4.66667 13.6985 4.96819 14 5.33333 14H10.6667C10.8435 14 11.013 13.9298 11.1381 13.8048C11.2631 13.6797 11.3333 13.5102 11.3333 13.3334V6.66669C11.3333 6.2985 11.6318 6.00003 12 6.00003H13.4333L13.4353 6.00003L13.4355 5.99875L13.4358 5.99679L13.8225 3.68345L13.8226 3.68251C13.8491 3.5257 13.8186 3.3646 13.7367 3.22829C13.6548 3.09199 13.5268 2.98945 13.3759 2.93918L13.5867 2.30674L13.3758 2.93915L11.2137 2.21843C11.0617 2.77018 10.7688 3.2786 10.357 3.69038C9.7319 4.3155 8.88406 4.66669 8 4.66669C7.11595 4.66669 6.2681 4.3155 5.64298 3.69038C5.2312 3.2786 4.93828 2.77018 4.78631 2.21843L2.62415 2.93915L2.41334 2.30672Z" />
</svg>
