<svg width="16" height="17" viewBox="0 0 16 17" xmlns="http://www.w3.org/2000/svg">
    <path fill-rule="evenodd" clip-rule="evenodd" d="M6.11436 2.37004C6.61446 1.86994 7.29274 1.58899 7.99998 1.58899C8.70722 1.58899 9.3855 1.86994 9.8856 2.37004C10.3857 2.87014 10.6666 3.54841 10.6666 4.25566V8.92232C10.6666 9.62957 10.3857 10.3078 9.8856 10.8079C9.3855 11.308 8.70722 11.589 7.99998 11.589C7.29274 11.589 6.61446 11.308 6.11436 10.8079C5.61426 10.3078 5.33331 9.62957 5.33331 8.92232V4.25566C5.33331 3.54841 5.61426 2.87014 6.11436 2.37004ZM7.99998 2.92232C7.64636 2.92232 7.30722 3.0628 7.05717 3.31285C6.80712 3.5629 6.66665 3.90203 6.66665 4.25566V8.92232C6.66665 9.27595 6.80712 9.61508 7.05717 9.86513C7.30722 10.1152 7.64636 10.2557 7.99998 10.2557C8.3536 10.2557 8.69274 10.1152 8.94279 9.86513C9.19284 9.61508 9.33331 9.27595 9.33331 8.92232V4.25566C9.33331 3.90203 9.19284 3.5629 8.94279 3.31285C8.69274 3.0628 8.3536 2.92232 7.99998 2.92232Z" />
    <path fill-rule="evenodd" clip-rule="evenodd" d="M3.33335 6.92236C3.70154 6.92236 4.00002 7.22084 4.00002 7.58903V8.92236C4.00002 9.98323 4.42145 11.0006 5.17159 11.7508C5.92174 12.5009 6.93915 12.9224 8.00002 12.9224C9.06089 12.9224 10.0783 12.5009 10.8284 11.7508C11.5786 11.0006 12 9.98323 12 8.92236V7.58903C12 7.22084 12.2985 6.92236 12.6667 6.92236C13.0349 6.92236 13.3334 7.22084 13.3334 7.58903V8.92236C13.3334 10.3369 12.7714 11.6934 11.7713 12.6936C10.7711 13.6938 9.41451 14.2557 8.00002 14.2557C6.58553 14.2557 5.22898 13.6938 4.22878 12.6936C3.22859 11.6934 2.66669 10.3369 2.66669 8.92236V7.58903C2.66669 7.22084 2.96516 6.92236 3.33335 6.92236Z" />
    <path fill-rule="evenodd" clip-rule="evenodd" d="M7.99998 12.9224C8.36817 12.9224 8.66665 13.2208 8.66665 13.589V15.589C8.66665 15.9572 8.36817 16.2557 7.99998 16.2557C7.63179 16.2557 7.33331 15.9572 7.33331 15.589V13.589C7.33331 13.2208 7.63179 12.9224 7.99998 12.9224Z" />
</svg>
