<svg width="16px" height="16px" viewBox="0 0 16 16" class="notify icon">
    <title>Notification</title>
    <desc>A bell icon</desc>
    <path d="M6.69988099,13.3333333 L1.5,13.3333333 L1.5,12 L2.8,10.6666667 L2.8,5.33333333 C2.8,3.4694939 4.45720462,1.90339361 6.7,1.45935082 L6.7,0 L9.3,0 L9.3,1.45935082 C11.5427954,1.90339361 13.2,3.4694939 13.2,5.33333333 L13.2,10.6666667 L14.5,12 L14.5,13.3333333 L9.30011901,13.3333333 C9.50411793,13.6118868 9.625,13.9581314 9.625,14.3333333 C9.625,15.2538079 8.89746272,16 8,16 C7.10253728,16 6.375,15.2538079 6.375,14.3333333 C6.375,13.9581314 6.49588207,13.6118868 6.69988099,13.3333333 Z"></path>
</svg>
