<svg width="16px" height="16px" viewBox="0 0 16 16" class="notification--new icon">
    <title>Notification</title>
    <desc>A handbell</desc>
    <path d="M6.99990845,12 L3,12 L3,11 L4,10 L4,6 C4,4.60212043 5.27477279,3.42754521 7,3.09451311 L7,2 L9,2 L9,3.09451311 C10.7252272,3.42754521 12,4.60212043 12,6 L12,10 L13,11 L13,12 L9.00009155,12 C9.15701379,12.2089151 9.25,12.4685985 9.25,12.75 C9.25,13.4403559 8.69035594,14 8,14 C7.30964406,14 6.75,13.4403559 6.75,12.75 C6.75,12.4685985 6.84298621,12.2089151 6.99990845,12 Z"></path>
</svg>
