<svg width="16" height="17" viewBox="0 0 16 17" xmlns="http://www.w3.org/2000/svg">
    <path fill-rule="evenodd" clip-rule="evenodd" d="M8.00002 2.92232C4.68631 2.92232 2.00002 5.60861 2.00002 8.92232C2.00002 12.236 4.68631 14.9223 8.00002 14.9223C11.3137 14.9223 14 12.236 14 8.92232C14 5.60861 11.3137 2.92232 8.00002 2.92232ZM0.666687 8.92232C0.666687 4.87223 3.94993 1.58899 8.00002 1.58899C12.0501 1.58899 15.3334 4.87223 15.3334 8.92232C15.3334 12.9724 12.0501 16.2557 8.00002 16.2557C3.94993 16.2557 0.666687 12.9724 0.666687 8.92232Z" />
    <path fill-rule="evenodd" clip-rule="evenodd" d="M6.35209 5.66787C6.56887 5.55186 6.8319 5.56458 7.03647 5.70096L11.0365 8.36762C11.2219 8.49127 11.3333 8.69942 11.3333 8.92232C11.3333 9.14523 11.2219 9.35338 11.0365 9.47702L7.03647 12.1437C6.8319 12.2801 6.56887 12.2928 6.35209 12.1768C6.13532 12.0608 6 11.8349 6 11.589V6.25566C6 6.00979 6.13532 5.78389 6.35209 5.66787ZM7.33333 7.50133V10.3433L9.46482 8.92232L7.33333 7.50133Z" />
</svg>
