<svg width="17" height="16" viewBox="0 0 17 16" xmlns="http://www.w3.org/2000/svg">
    <path fill-rule="evenodd" clip-rule="evenodd" d="M8.25 2C8.44891 2 8.63968 2.07902 8.78033 2.21967C8.92098 2.36032 9 2.55109 9 2.75V7H13.25C13.4489 7 13.6397 7.07902 13.7803 7.21967C13.921 7.36032 14 7.55109 14 7.75C14 7.94891 13.921 8.13968 13.7803 8.28033C13.6397 8.42098 13.4489 8.5 13.25 8.5H9V12.75C9 12.9489 8.92098 13.1397 8.78033 13.2803C8.63968 13.421 8.44891 13.5 8.25 13.5C8.05109 13.5 7.86032 13.421 7.71967 13.2803C7.57902 13.1397 7.5 12.9489 7.5 12.75V8.5H3.25C3.05109 8.5 2.86032 8.42098 2.71967 8.28033C2.57902 8.13968 2.5 7.94891 2.5 7.75C2.5 7.55109 2.57902 7.36032 2.71967 7.21967C2.86032 7.07902 3.05109 7 3.25 7H7.5V2.75C7.5 2.55109 7.57902 2.36032 7.71967 2.21967C7.86032 2.07902 8.05109 2 8.25 2Z" />
</svg>
