<svg width="25px" height="21px" viewBox="0 0 25 21" class="reddit icon">
    <title>Reddit</title>
    <desc>The logo for the social network Reddit</desc>
    <path d="M24.3615351,11.2034836 C24.0711329,11.6402771 23.6688545,12.0056602 23.2058772,12.2544063 C23.2356315,12.4817294 23.2511038,12.7102426 23.2511038,12.9399459 C23.2511038,14.1693946 22.8202612,15.3786103 22.0645014,16.3497914 L22.0645014,16.3521717 C20.6696187,18.1695658 18.5308779,19.2395313 16.3695239,19.78106 L16.3683337,19.78106 L16.3683337,19.7834403 C15.2150561,20.0571801 14.0260734,20.2000008 12.8382808,20.2000008 C11.0684936,20.2000008 9.29751628,19.8834148 7.6479366,19.2347706 L7.64555625,19.2347706 C5.93408757,18.5420899 4.30236047,17.4423701 3.30380538,15.8320662 C2.76584722,14.9715711 2.46949415,13.9634947 2.46949415,12.947087 C2.46949415,12.7197639 2.48615658,12.4888704 2.51710107,12.2639277 C2.0672157,12.0151816 1.67683898,11.6593199 1.38762696,11.2415692 C1.07699182,10.7881133 0.881803459,10.2584863 0.858,9.69791486 L0.858,9.69553451 L0.858,9.69315417 L0.858,9.68839347 C0.858,8.90287934 1.2055305,8.1614016 1.74467884,7.61273187 C2.28382718,7.06406215 3.02292457,6.7058201 3.8131994,6.7058201 L3.84652424,6.7058201 C3.92864617,6.70105941 4.01314845,6.69629871 4.09646056,6.69629871 C4.49397832,6.69629871 4.89387642,6.76175823 5.26997107,6.90100846 L5.27235142,6.90338881 L5.27592194,6.90576915 C5.5984588,7.03787835 5.91861532,7.19855169 6.20425683,7.42230421 C6.29709031,7.37350711 6.39944519,7.32232968 6.51132144,7.27829328 C8.24540341,6.27140698 10.2603662,5.8834106 12.2253417,5.77153434 C12.2443845,4.81582548 12.3598312,3.81846056 12.8347102,2.94487362 C13.2298477,2.2200583 13.9177676,1.65472616 14.7342263,1.45715745 L14.7389869,1.45715745 L14.7413673,1.45715745 C15.0531926,1.39407829 15.3673983,1.36908466 15.6780334,1.36908466 C16.5087741,1.36908466 17.3288033,1.56189267 18.0952746,1.86181625 C18.4356641,1.35956327 18.9200645,0.966806204 19.487777,0.745434038 L19.4925376,0.743053692 L19.4984885,0.740673346 C19.8317369,0.64069882 20.1852183,0.58 20.54108,0.58 C20.9136041,0.58 21.2896988,0.645459511 21.6407998,0.801372166 L21.6407998,0.79899182 L21.6431801,0.801372166 C21.6455605,0.801372166 21.6503212,0.803752512 21.6503212,0.803752512 C22.1573349,0.994180182 22.5834168,1.34766154 22.8869109,1.78683536 C23.1915951,2.22600917 23.3701211,2.75325578 23.3701211,3.29597464 C23.3701211,3.39594917 23.36298,3.49830404 23.348698,3.59827856 L23.348698,3.60065891 L23.348698,3.6054196 C23.2903795,4.30524129 22.9273767,4.9205607 22.4144122,5.36092468 C21.9014477,5.80128867 21.2313803,6.0678874 20.5458407,6.0678874 C20.437535,6.0678874 20.3244685,6.06312671 20.2149726,6.04646429 C19.536574,5.99528686 18.9022119,5.67513034 18.4368543,5.1931103 C17.9691163,4.71466078 17.6680025,4.07315757 17.6680025,3.38285726 C17.6680025,3.35072259 17.6691927,3.31501741 17.6727632,3.28050239 C17.0324502,3.00438227 16.3552418,2.77110837 15.6827941,2.77348872 C15.5851999,2.77348872 15.4876057,2.77586907 15.3900115,2.7877708 C14.8853782,2.83418754 14.4164501,3.14839319 14.1879369,3.59470805 L14.1879369,3.59708839 C13.8439769,4.25525402 13.7749469,5.02648609 13.7654255,5.79176728 C15.6970762,5.91554527 17.6441991,6.37019133 19.3485267,7.33066089 L19.3509071,7.33066089 L19.3759007,7.34494296 C19.4080354,7.36398573 19.467544,7.3961204 19.5211018,7.42349438 C19.6401191,7.33066089 19.7627069,7.23544705 19.9043375,7.15094478 C20.4220627,6.81412584 21.0350018,6.64393111 21.6455605,6.64393111 C21.9193003,6.64393111 22.1918499,6.68082647 22.4560683,6.74628598 L22.4572584,6.74628598 L22.4691602,6.74866632 C22.4715405,6.74866632 22.4739209,6.75104667 22.4786815,6.75104667 C23.101142,6.90695932 23.6664741,7.26044069 24.0913659,7.73174917 C24.5162576,8.20781834 24.8030893,8.8076655 24.8590274,9.4586901 L24.8590274,9.46107044 L24.8590274,9.46345079 C24.8614078,9.51462823 24.8625979,9.56580566 24.8625979,9.6169831 C24.8602176,10.1870759 24.6733604,10.738126 24.3615351,11.2034836 Z M7.90620412,12.6138385 C7.72291749,12.3603317 7.61580193,12.0532671 7.61580193,11.7354909 C7.61580193,11.59148 7.63960539,11.4450887 7.68602213,11.3058385 L7.68602213,11.3010778 C7.85383651,10.7845427 8.30610223,10.4084481 8.82501763,10.3013325 L8.82977832,10.3013325 C8.93332337,10.2775291 9.03924876,10.2668175 9.14398398,10.2668175 C9.53317053,10.2668175 9.91164552,10.4251105 10.1960969,10.6809977 C10.4769777,10.9368849 10.6697857,11.2998876 10.6697857,11.7057366 C10.6697857,11.7271597 10.6697857,11.7473927 10.6685955,11.7664354 C10.6697857,11.7783371 10.6697857,11.7902389 10.6697857,11.8009504 C10.6697857,12.2103699 10.4734071,12.5721825 10.1889558,12.8256893 C9.90331431,13.0815765 9.52483932,13.2374892 9.13565277,13.2374892 C8.98093028,13.2374892 8.82263728,13.2124955 8.66910497,13.1565574 L8.66196394,13.1565574 C8.66077376,13.1541771 8.65958359,13.1541771 8.65720325,13.1541771 C8.34656811,13.0601534 8.08949076,12.864965 7.90620412,12.6138385 Z M17.3966431,15.8332563 C17.3621281,15.9606048 17.2978588,16.0677204 17.2216877,16.154603 C17.1443264,16.2426758 17.051493,16.3105157 16.9562791,16.3712145 C16.7706121,16.4830908 16.5682827,16.5616422 16.4171308,16.6473346 L16.4123701,16.6520953 L16.4076094,16.6544757 C15.2638532,17.1817223 13.9832271,17.4733146 12.7085519,17.4733146 C11.2946265,17.4733146 9.88665189,17.1150726 8.69052809,16.3247978 C8.56913045,16.2569579 8.47510679,16.1617441 8.41440797,16.0522482 C8.3513288,15.9356112 8.32157448,15.8082627 8.32157448,15.6821044 C8.32157448,15.5380935 8.35727967,15.3988432 8.43464091,15.2774456 C8.5096218,15.1560479 8.62149806,15.0560734 8.76788933,15.0037058 C8.77265002,15.0013255 8.77741071,14.9989451 8.7821714,14.9965648 C8.87500489,14.9572891 8.96902855,14.9358659 9.05829152,14.9358659 C9.16778743,14.9358659 9.26776196,14.9608596 9.35940528,15.0013255 C9.45223877,15.0382208 9.53317053,15.0870179 9.61410229,15.1381953 C9.77120511,15.2405502 9.91402587,15.3476658 10.0413744,15.3988432 L10.0461351,15.4012236 L10.0497056,15.4012236 C10.885207,15.8058824 11.8099714,15.9986904 12.7383062,15.9986904 C13.9772763,15.9986904 15.2245775,15.6594911 16.2862118,15.0382208 C16.3968978,14.9644301 16.5230562,14.9311053 16.6444538,14.9311053 C16.7944156,14.9311053 16.9396167,14.977522 17.0598242,15.0560734 C17.1836022,15.1322445 17.2871472,15.2417404 17.3502264,15.3774201 C17.3930726,15.4631126 17.4204466,15.5630871 17.4204466,15.6678223 C17.4180662,15.7225703 17.4121154,15.7785084 17.3966431,15.8332563 Z M17.8072528,12.6257403 C17.6192054,12.8768668 17.3537969,13.0720551 17.0395912,13.1577476 C17.0395912,13.1601279 17.0384011,13.1601279 17.0336404,13.1601279 C17.0324502,13.1601279 17.03126,13.1625083 17.0300698,13.1625083 C16.8848687,13.2113054 16.7325266,13.2327285 16.583755,13.2327285 C16.2350343,13.2327285 15.8934547,13.1113308 15.6185247,12.9006702 C15.3459751,12.6911998 15.1400752,12.3888959 15.0758059,12.0330342 L15.0746157,12.0330342 L15.0746157,12.0282735 L15.0746157,12.0235128 C15.0531926,11.9330596 15.0448614,11.8402261 15.0448614,11.7509632 C15.0448614,11.4391379 15.1531671,11.143975 15.3281225,10.8976092 C15.5042681,10.6536237 15.7530143,10.4631961 16.046987,10.3608412 L16.0481772,10.3608412 C16.0481772,10.3608412 16.0493673,10.3584608 16.0517477,10.3584608 C16.2171817,10.297762 16.3885666,10.270388 16.5623319,10.270388 C16.8753474,10.270388 17.1859825,10.3632215 17.44425,10.5334163 C17.7025176,10.7012306 17.911988,10.9475964 18.015533,11.2534709 C18.0167232,11.2558512 18.0167232,11.2582316 18.0179134,11.2606119 C18.0179134,11.2606119 18.0179134,11.2629923 18.0191036,11.2629923 C18.0809925,11.4189049 18.1083665,11.5795783 18.1083665,11.7366811 C18.1095567,12.0615983 17.9976804,12.3722334 17.8072528,12.6257403 Z"></path>
</svg>
