<svg width="17" height="16" viewBox="0 0 17 16" xmlns="http://www.w3.org/2000/svg">
    <path fill-rule="evenodd" clip-rule="evenodd" d="M12 6.99999C12 7.59093 11.8836 8.1761 11.6574 8.72206C11.4313 9.26803 11.0998 9.7641 10.682 10.182C10.2641 10.5998 9.76803 10.9313 9.22206 11.1575C8.6761 11.3836 8.09094 11.5 7.49999 11.5C6.90904 11.5 6.32388 11.3836 5.77791 11.1575C5.23195 10.9313 4.73587 10.5998 4.31801 10.182C3.90014 9.7641 3.56868 9.26803 3.34253 8.72206C3.11638 8.1761 2.99999 7.59093 2.99999 6.99999C2.99999 5.80651 3.47409 4.66192 4.31801 3.81801C5.16192 2.97409 6.30651 2.49999 7.49999 2.49999C8.69346 2.49999 9.83805 2.97409 10.682 3.81801C11.5259 4.66192 12 5.80651 12 6.99999ZM11.18 11.74C9.97437 12.676 8.45736 13.1173 6.93779 12.9741C5.41822 12.831 4.01033 12.1141 3.00074 10.9694C1.99114 9.8247 1.45574 8.33828 1.50352 6.81274C1.55131 5.28719 2.17869 3.83719 3.25794 2.75794C4.3372 1.67869 5.78719 1.05131 7.31274 1.00352C8.83829 0.955741 10.3247 1.49114 11.4694 2.50074C12.6141 3.51033 13.331 4.91822 13.4741 6.43779C13.6173 7.95735 13.176 9.47436 12.24 10.68L15.28 13.72C15.3537 13.7887 15.4128 13.8715 15.4538 13.9635C15.4948 14.0555 15.5168 14.1548 15.5186 14.2555C15.5204 14.3562 15.5018 14.4562 15.4641 14.5496C15.4264 14.643 15.3702 14.7278 15.299 14.799C15.2278 14.8703 15.143 14.9264 15.0496 14.9641C14.9562 15.0018 14.8562 15.0204 14.7555 15.0186C14.6548 15.0168 14.5554 14.9948 14.4635 14.9538C14.3715 14.9128 14.2887 14.8537 14.22 14.78L11.18 11.74Z" />
</svg>
