<svg width="17" height="17" viewBox="0 0 17 17" xmlns="http://www.w3.org/2000/svg">
    <path fill-rule="evenodd" clip-rule="evenodd" d="M2.09168 3.63481L2.88083 8.1724H7.75001C8.16422 8.1724 8.50001 8.50818 8.50001 8.9224C8.50001 9.33661 8.16422 9.6724 7.75001 9.6724H2.88083L2.09168 14.21L14.4294 8.9224L2.09168 3.63481ZM1.48875 8.9224L0.563675 3.60324C0.48889 3.17323 0.628032 2.73371 0.936661 2.42508C1.32445 2.0373 1.90926 1.92467 2.41333 2.1407L15.8157 7.88456C16.2308 8.06249 16.5 8.47071 16.5 8.9224C16.5 9.37408 16.2308 9.78231 15.8157 9.96024L2.41333 15.7041C1.90926 15.9202 1.32445 15.8075 0.936661 15.4198C0.628032 15.1111 0.48889 14.6716 0.563675 14.2416L1.48875 8.9224Z" />
</svg>
