<svg width="25px" height="25px" viewBox="0 0 59 48" class="twitter icon">
    <title>Twitter Icon</title>
    <description>Symbolizes a link to our Twitter page</description>
    <path d="M56.8,1.5 C54.5,2.9 51.9,3.9 49.2,4.4 C47.1,2.1 43.9,0.7 40.6,0.7 C34.1,0.7 28.7,6 28.7,12.6 C28.7,13.5 28.7,14.5 29,15.3 C19.1,14.8 10.3,10.1 4.5,2.9 C3.5,4.7 2.8,6.8 2.8,8.9 C2.8,13 4.8,16.6 8,18.8 C6,18.8 4.1,18.2 2.3,17.3 C2.3,23.2 6.6,27.9 12.1,29 C11.1,29.3 10.3,29.5 9.2,29.5 C8.5,29.5 7.7,29.4 7,29.3 C8.5,34 12.9,37.4 18.1,37.6 C14,40.7 8.9,42.7 3.4,42.7 C2.4,42.7 1.5,42.7 0.6,42.5 C5.9,45.9 12.1,47.8 18.8,47.8 C40.6,47.8 52.6,29.7 52.6,14.1 L52.6,12.5 C54.9,10.9 56.9,8.8 58.5,6.3 C56.2,7.2 53.9,7.8 51.5,8.1 C54,6.6 55.8,4.2 56.8,1.5 Z" id="twitter-icon"></path>
</svg>
