<svg width="16px" height="16px" viewBox="0 0 16 16" class="view icon">
    <title>View</title>
    <desc>An eye</desc>
    <path d="M9.91589853,7.40203703 C9.97060556,7.58150446 10,7.77174815 10,7.96875 C10,9.0560606 9.1045695,9.9375 8,9.9375 C6.8954305,9.9375 6,9.0560606 6,7.96875 C6,6.8814394 6.8954305,6 8,6 C8.20564761,6 8.40404592,6.03055299 8.59076598,6.08729922 C8.24252439,6.24368341 8,6.5935194 8,7 C8,7.55228475 8.44771525,8 9,8 C9.40927498,8 9.76112386,7.75412964 9.91589853,7.40203703 Z M0,8 C0,8 3.42857143,3.5 8,3.5 C12.5714286,3.5 16,8 16,8 C16,8 12.5714286,12.5 8,12.5 C3.42857143,12.5 0,8 0,8 Z M8,11.375 C9.89354771,11.375 11.4285714,9.86396103 11.4285714,8 C11.4285714,6.13603897 9.89354771,4.625 8,4.625 C6.10645229,4.625 4.57142857,6.13603897 4.57142857,8 C4.57142857,9.86396103 6.10645229,11.375 8,11.375 Z"></path>
</svg>
