<svg width="48" height="48" viewBox="0 0 48 48" class="youtube icon">
    <path d="M24.0479 7.09082C24.1175 7.09083 39.0568 7.09287 42.8008 8.09961C43.82 8.37754 44.7485 8.91855 45.4932 9.66797C46.2379 10.4175 46.7726 11.3499 47.0439 12.3711C48.0473 16.1392 48.0479 23.9955 48.0479 24C48.0479 24 48.0475 31.8598 47.0439 35.6289C46.7726 36.6501 46.2379 37.5825 45.4932 38.332C44.7485 39.0814 43.82 39.6225 42.8008 39.9004C39.0568 40.9071 24.1175 40.9092 24.0479 40.9092C24.0479 40.9092 9.04788 40.9094 5.29492 39.9004C4.27565 39.6225 3.34723 39.0814 2.60254 38.332C1.8578 37.5825 1.32216 36.6501 1.05078 35.6289C0.0472215 31.8597 0.0478516 24 0.0478516 24C0.0478516 23.9955 0.0475066 16.1392 1.05078 12.3711C1.32216 11.3499 1.8578 10.4175 2.60254 9.66797C3.34723 8.9186 4.27565 8.37748 5.29492 8.09961C9.04788 7.09056 24.0479 7.09082 24.0479 7.09082ZM19.1387 31.1377L31.6836 24L19.1387 16.8633V31.1377Z" />
</svg>
