<?xml version="1.0" encoding="UTF-8"?>
<svg width="19px" height="32px" viewBox="0 0 19 32" version="1.1" xmlns="http://www.w3.org/2000/svg" xmlns:xlink="http://www.w3.org/1999/xlink">
    <!-- Generator: Sketch 41 (35326) - http://www.bohemiancoding.com/sketch -->
    <title>Combined Shape</title>
    <desc>Created with Sketch.</desc>
    <defs></defs>
    <g id="Page-1" stroke="none" stroke-width="1" fill="none" fill-rule="evenodd">
        <g id="Favicon" transform="translate(-6.000000, 0.000000)" fill="#3E3E3E">
            <path d="M15.9470762,3.90083759 L16.2375996,6.32041234 C17.4096471,6.58677897 18.353686,7.47457808 18.723902,8.62929062 L20.4731658,8.62929062 C22.9732673,8.62929062 25,10.6588237 25,13.1510297 C25,15.6483173 22.9666672,17.6727689 20.4731658,17.6727689 L10.5268342,17.6727689 C8.02673272,17.6727689 6,15.6432358 6,13.1510297 C6,10.6537422 8.03333282,8.62929062 10.5268342,8.62929062 L12.276098,8.62929062 C12.6527119,7.45462313 13.6231528,6.55617401 14.8233664,6.30716143 L15.1107256,3.91393946 C14.2322073,3.72934384 13.5714286,2.93233925 13.5714286,1.9771167 C13.5714286,0.8851853 14.4348794,0 15.5,0 C16.5651206,0 17.4285714,0.8851853 17.4285714,1.9771167 C17.4285714,2.91127286 16.7966169,3.69411275 15.9470762,3.90083759 Z M6,19.0640732 L25,19.0640732 L25,31.5858124 L6,31.5858124 L6,19.0640732 Z M10.0714286,20.8032037 L20.9285714,20.8032037 L20.9285714,29.8466819 L10.0714286,29.8466819 L10.0714286,20.8032037 Z M19.5714286,14.9221968 C20.5255991,14.9221968 21.2991071,14.1292183 21.2991071,13.1510297 C21.2991071,12.1728412 20.5255991,11.3798627 19.5714286,11.3798627 C18.617258,11.3798627 17.84375,12.1728412 17.84375,13.1510297 C17.84375,14.1292183 18.617258,14.9221968 19.5714286,14.9221968 Z M11.4285714,11.3798627 C10.4744009,11.3798627 9.70089286,12.1728412 9.70089286,13.1510297 C9.70089286,14.1292183 10.4744009,14.9221968 11.4285714,14.9221968 C12.382742,14.9221968 13.15625,14.1292183 13.15625,13.1510297 C13.15625,12.1728412 12.382742,11.3798627 11.4285714,11.3798627 Z M12,23 L17,23 L17,24 L12,24 L12,23 Z M12,25 L15,25 L15,26 L12,26 L12,25 Z M16,25 L19,25 L19,26 L16,26 L16,25 Z M12,27 L17,27 L17,28 L12,28 L12,27 Z M18,27 L19,27 L19,28 L18,28 L18,27 Z M18,23 L19,23 L19,24 L18,24 L18,23 Z" id="Combined-Shape"></path>
        </g>
    </g>
</svg>