<svg width="176" height="15" viewBox="0 0 176 15" fill="none" xmlns="http://www.w3.org/2000/svg">
<path d="M2.81131 9.888H5.05131C5.41398 9.888 5.76598 9.82933 6.10731 9.712C6.44865 9.59467 6.75265 9.40267 7.01931 9.136C7.28598 8.85867 7.49931 8.50133 7.65931 8.064C7.81931 7.62667 7.89931 7.09333 7.89931 6.464C7.89931 5.888 7.84065 5.37067 7.72331 4.912C7.61665 4.44267 7.43531 4.04267 7.17931 3.712C6.92331 3.38133 6.58198 3.13067 6.15531 2.96C5.73931 2.77867 5.22198 2.688 4.60331 2.688H2.81131V9.888ZM0.299313 0.575999H5.22731C5.96331 0.575999 6.64598 0.693333 7.27531 0.927999C7.91531 1.16267 8.46465 1.51467 8.92331 1.984C9.39265 2.45333 9.75531 3.04 10.0113 3.744C10.278 4.448 10.4113 5.27467 10.4113 6.224C10.4113 7.056 10.3046 7.824 10.0913 8.528C9.87798 9.232 9.55265 9.84 9.11531 10.352C8.68865 10.864 8.14998 11.2693 7.49931 11.568C6.85931 11.856 6.10198 12 5.22731 12H0.299313V0.575999ZM11.8227 6.272C11.8547 5.73867 11.988 5.296 12.2227 4.944C12.4574 4.592 12.756 4.30933 13.1187 4.096C13.4814 3.88267 13.8867 3.73333 14.3347 3.648C14.7934 3.552 15.252 3.504 15.7107 3.504C16.1267 3.504 16.548 3.536 16.9747 3.6C17.4014 3.65333 17.7907 3.76533 18.1427 3.936C18.4947 4.10667 18.7827 4.34667 19.0067 4.656C19.2307 4.95467 19.3427 5.35467 19.3427 5.856V10.16C19.3427 10.5333 19.364 10.8907 19.4067 11.232C19.4494 11.5733 19.524 11.8293 19.6307 12H17.3267C17.284 11.872 17.2467 11.744 17.2147 11.616C17.1934 11.4773 17.1774 11.3387 17.1667 11.2C16.804 11.5733 16.3774 11.8347 15.8867 11.984C15.396 12.1333 14.8947 12.208 14.3827 12.208C13.988 12.208 13.62 12.16 13.2787 12.064C12.9374 11.968 12.6387 11.8187 12.3827 11.616C12.1267 11.4133 11.924 11.1573 11.7747 10.848C11.636 10.5387 11.5667 10.1707 11.5667 9.744C11.5667 9.27467 11.6467 8.89067 11.8067 8.592C11.9774 8.28267 12.1907 8.03733 12.4467 7.856C12.7134 7.67467 13.012 7.54133 13.3427 7.456C13.684 7.36 14.0254 7.28533 14.3667 7.232C14.708 7.17867 15.044 7.136 15.3747 7.104C15.7054 7.072 15.9987 7.024 16.2547 6.96C16.5107 6.896 16.7134 6.80533 16.8627 6.688C17.012 6.56 17.0814 6.37867 17.0707 6.144C17.0707 5.89867 17.028 5.70667 16.9427 5.568C16.868 5.41867 16.7614 5.30667 16.6227 5.232C16.4947 5.14667 16.34 5.09333 16.1587 5.072C15.988 5.04 15.8014 5.024 15.5987 5.024C15.1507 5.024 14.7987 5.12 14.5427 5.312C14.2867 5.504 14.1374 5.824 14.0947 6.272H11.8227ZM17.0707 7.952C16.9747 8.03733 16.852 8.10667 16.7027 8.16C16.564 8.20267 16.4094 8.24 16.2387 8.272C16.0787 8.304 15.908 8.33067 15.7267 8.352C15.5454 8.37333 15.364 8.4 15.1827 8.432C15.012 8.464 14.8414 8.50667 14.6707 8.56C14.5107 8.61333 14.3667 8.688 14.2387 8.784C14.1214 8.86933 14.0254 8.98133 13.9507 9.12C13.876 9.25867 13.8387 9.43467 13.8387 9.648C13.8387 9.85067 13.876 10.0213 13.9507 10.16C14.0254 10.2987 14.1267 10.4107 14.2547 10.496C14.3827 10.5707 14.532 10.624 14.7027 10.656C14.8734 10.688 15.0494 10.704 15.2307 10.704C15.6787 10.704 16.0254 10.6293 16.2707 10.48C16.516 10.3307 16.6974 10.1547 16.8147 9.952C16.932 9.73867 17.0014 9.52533 17.0227 9.312C17.0547 9.09867 17.0707 8.928 17.0707 8.8V7.952ZM23.9862 3.728H25.6502V5.248H23.9862V9.344C23.9862 9.728 24.0502 9.984 24.1782 10.112C24.3062 10.24 24.5622 10.304 24.9462 10.304C25.0742 10.304 25.1969 10.2987 25.3142 10.288C25.4315 10.2773 25.5435 10.2613 25.6502 10.24V12C25.4582 12.032 25.2449 12.0533 25.0102 12.064C24.7755 12.0747 24.5462 12.08 24.3222 12.08C23.9702 12.08 23.6342 12.0533 23.3142 12C23.0049 11.9573 22.7275 11.8667 22.4822 11.728C22.2475 11.5893 22.0609 11.392 21.9222 11.136C21.7835 10.88 21.7142 10.544 21.7142 10.128V5.248H20.3382V3.728H21.7142V1.248H23.9862V3.728ZM26.6352 6.272C26.6672 5.73867 26.8005 5.296 27.0352 4.944C27.2699 4.592 27.5685 4.30933 27.9312 4.096C28.2939 3.88267 28.6992 3.73333 29.1472 3.648C29.6059 3.552 30.0645 3.504 30.5232 3.504C30.9392 3.504 31.3605 3.536 31.7872 3.6C32.2139 3.65333 32.6032 3.76533 32.9552 3.936C33.3072 4.10667 33.5952 4.34667 33.8192 4.656C34.0432 4.95467 34.1552 5.35467 34.1552 5.856V10.16C34.1552 10.5333 34.1765 10.8907 34.2192 11.232C34.2619 11.5733 34.3365 11.8293 34.4432 12H32.1392C32.0965 11.872 32.0592 11.744 32.0272 11.616C32.0059 11.4773 31.9899 11.3387 31.9792 11.2C31.6165 11.5733 31.1899 11.8347 30.6992 11.984C30.2085 12.1333 29.7072 12.208 29.1952 12.208C28.8005 12.208 28.4325 12.16 28.0912 12.064C27.7499 11.968 27.4512 11.8187 27.1952 11.616C26.9392 11.4133 26.7365 11.1573 26.5872 10.848C26.4485 10.5387 26.3792 10.1707 26.3792 9.744C26.3792 9.27467 26.4592 8.89067 26.6192 8.592C26.7899 8.28267 27.0032 8.03733 27.2592 7.856C27.5259 7.67467 27.8245 7.54133 28.1552 7.456C28.4965 7.36 28.8379 7.28533 29.1792 7.232C29.5205 7.17867 29.8565 7.136 30.1872 7.104C30.5179 7.072 30.8112 7.024 31.0672 6.96C31.3232 6.896 31.5259 6.80533 31.6752 6.688C31.8245 6.56 31.8939 6.37867 31.8832 6.144C31.8832 5.89867 31.8405 5.70667 31.7552 5.568C31.6805 5.41867 31.5739 5.30667 31.4352 5.232C31.3072 5.14667 31.1525 5.09333 30.9712 5.072C30.8005 5.04 30.6139 5.024 30.4112 5.024C29.9632 5.024 29.6112 5.12 29.3552 5.312C29.0992 5.504 28.9499 5.824 28.9072 6.272H26.6352ZM31.8832 7.952C31.7872 8.03733 31.6645 8.10667 31.5152 8.16C31.3765 8.20267 31.2219 8.24 31.0512 8.272C30.8912 8.304 30.7205 8.33067 30.5392 8.352C30.3579 8.37333 30.1765 8.4 29.9952 8.432C29.8245 8.464 29.6539 8.50667 29.4832 8.56C29.3232 8.61333 29.1792 8.688 29.0512 8.784C28.9339 8.86933 28.8379 8.98133 28.7632 9.12C28.6885 9.25867 28.6512 9.43467 28.6512 9.648C28.6512 9.85067 28.6885 10.0213 28.7632 10.16C28.8379 10.2987 28.9392 10.4107 29.0672 10.496C29.1952 10.5707 29.3445 10.624 29.5152 10.656C29.6859 10.688 29.8619 10.704 30.0432 10.704C30.4912 10.704 30.8379 10.6293 31.0832 10.48C31.3285 10.3307 31.5099 10.1547 31.6272 9.952C31.7445 9.73867 31.8139 9.52533 31.8352 9.312C31.8672 9.09867 31.8832 8.928 31.8832 8.8V7.952ZM40.6118 0.575999H43.1238V9.888H48.6918V12H40.6118V0.575999ZM52.1922 2.448H49.9202V0.575999H52.1922V2.448ZM49.9202 3.728H52.1922V12H49.9202V3.728ZM60.0452 7.872C60.0452 7.52 60.0079 7.184 59.9332 6.864C59.8585 6.544 59.7412 6.26133 59.5812 6.016C59.4212 5.77067 59.2185 5.57867 58.9732 5.44C58.7385 5.29067 58.4505 5.216 58.1092 5.216C57.7785 5.216 57.4905 5.29067 57.2452 5.44C56.9999 5.57867 56.7972 5.77067 56.6372 6.016C56.4772 6.26133 56.3599 6.544 56.2852 6.864C56.2105 7.184 56.1732 7.52 56.1732 7.872C56.1732 8.21333 56.2105 8.544 56.2852 8.864C56.3599 9.184 56.4772 9.46667 56.6372 9.712C56.7972 9.95733 56.9999 10.1547 57.2452 10.304C57.4905 10.4427 57.7785 10.512 58.1092 10.512C58.4505 10.512 58.7385 10.4427 58.9732 10.304C59.2185 10.1547 59.4212 9.95733 59.5812 9.712C59.7412 9.46667 59.8585 9.184 59.9332 8.864C60.0079 8.544 60.0452 8.21333 60.0452 7.872ZM53.9812 0.575999H56.2532V4.736H56.2852C56.5625 4.30933 56.9359 4 57.4052 3.808C57.8852 3.60533 58.3812 3.504 58.8932 3.504C59.3092 3.504 59.7199 3.58933 60.1252 3.76C60.5305 3.93067 60.8932 4.192 61.2132 4.544C61.5439 4.896 61.8105 5.34933 62.0132 5.904C62.2159 6.448 62.3172 7.09867 62.3172 7.856C62.3172 8.61333 62.2159 9.26933 62.0132 9.824C61.8105 10.368 61.5439 10.816 61.2132 11.168C60.8932 11.52 60.5305 11.7813 60.1252 11.952C59.7199 12.1227 59.3092 12.208 58.8932 12.208C58.2852 12.208 57.7412 12.112 57.2612 11.92C56.7812 11.728 56.4185 11.4027 56.1732 10.944H56.1412V12H53.9812V0.575999ZM69.3304 6.976C69.2238 6.4 69.0318 5.96267 68.7544 5.664C68.4878 5.36533 68.0771 5.216 67.5224 5.216C67.1598 5.216 66.8558 5.28 66.6104 5.408C66.3758 5.52533 66.1838 5.67467 66.0344 5.856C65.8958 6.03733 65.7944 6.22933 65.7304 6.432C65.6771 6.63467 65.6451 6.816 65.6344 6.976H69.3304ZM65.6344 8.416C65.6664 9.152 65.8531 9.68533 66.1944 10.016C66.5358 10.3467 67.0264 10.512 67.6664 10.512C68.1251 10.512 68.5198 10.4 68.8504 10.176C69.1811 9.94133 69.3838 9.696 69.4584 9.44H71.4584C71.1384 10.432 70.6478 11.1413 69.9864 11.568C69.3251 11.9947 68.5251 12.208 67.5864 12.208C66.9358 12.208 66.3491 12.1067 65.8264 11.904C65.3038 11.6907 64.8611 11.392 64.4984 11.008C64.1358 10.624 63.8531 10.1653 63.6504 9.632C63.4584 9.09867 63.3624 8.512 63.3624 7.872C63.3624 7.25333 63.4638 6.67733 63.6664 6.144C63.8691 5.61067 64.1571 5.152 64.5304 4.768C64.9038 4.37333 65.3464 4.064 65.8584 3.84C66.3811 3.616 66.9571 3.504 67.5864 3.504C68.2904 3.504 68.9038 3.64267 69.4264 3.92C69.9491 4.18667 70.3758 4.54933 70.7064 5.008C71.0478 5.46667 71.2931 5.98933 71.4424 6.576C71.5918 7.16267 71.6451 7.776 71.6024 8.416H65.6344ZM72.9499 3.728H75.1099V5.264H75.1419C75.2486 5.008 75.3926 4.77333 75.5739 4.56C75.7553 4.336 75.9633 4.14933 76.1979 4C76.4326 3.84 76.6833 3.71733 76.9499 3.632C77.2166 3.54667 77.4939 3.504 77.7819 3.504C77.9313 3.504 78.0966 3.53067 78.2779 3.584V5.696C78.1713 5.67467 78.0433 5.65867 77.8939 5.648C77.7446 5.62667 77.6006 5.616 77.4619 5.616C77.0459 5.616 76.6939 5.68533 76.4059 5.824C76.1179 5.96267 75.8833 6.15467 75.7019 6.4C75.5313 6.63467 75.4086 6.912 75.3339 7.232C75.2593 7.552 75.2219 7.89867 75.2219 8.272V12H72.9499V3.728ZM79.0727 6.272C79.1047 5.73867 79.238 5.296 79.4727 4.944C79.7074 4.592 80.006 4.30933 80.3687 4.096C80.7314 3.88267 81.1367 3.73333 81.5847 3.648C82.0434 3.552 82.502 3.504 82.9607 3.504C83.3767 3.504 83.798 3.536 84.2247 3.6C84.6514 3.65333 85.0407 3.76533 85.3927 3.936C85.7447 4.10667 86.0327 4.34667 86.2567 4.656C86.4807 4.95467 86.5927 5.35467 86.5927 5.856V10.16C86.5927 10.5333 86.614 10.8907 86.6567 11.232C86.6994 11.5733 86.774 11.8293 86.8807 12H84.5767C84.534 11.872 84.4967 11.744 84.4647 11.616C84.4434 11.4773 84.4274 11.3387 84.4167 11.2C84.054 11.5733 83.6274 11.8347 83.1367 11.984C82.646 12.1333 82.1447 12.208 81.6327 12.208C81.238 12.208 80.87 12.16 80.5287 12.064C80.1874 11.968 79.8887 11.8187 79.6327 11.616C79.3767 11.4133 79.174 11.1573 79.0247 10.848C78.886 10.5387 78.8167 10.1707 78.8167 9.744C78.8167 9.27467 78.8967 8.89067 79.0567 8.592C79.2274 8.28267 79.4407 8.03733 79.6967 7.856C79.9634 7.67467 80.262 7.54133 80.5927 7.456C80.934 7.36 81.2754 7.28533 81.6167 7.232C81.958 7.17867 82.294 7.136 82.6247 7.104C82.9554 7.072 83.2487 7.024 83.5047 6.96C83.7607 6.896 83.9634 6.80533 84.1127 6.688C84.262 6.56 84.3314 6.37867 84.3207 6.144C84.3207 5.89867 84.278 5.70667 84.1927 5.568C84.118 5.41867 84.0114 5.30667 83.8727 5.232C83.7447 5.14667 83.59 5.09333 83.4087 5.072C83.238 5.04 83.0514 5.024 82.8487 5.024C82.4007 5.024 82.0487 5.12 81.7927 5.312C81.5367 5.504 81.3874 5.824 81.3447 6.272H79.0727ZM84.3207 7.952C84.2247 8.03733 84.102 8.10667 83.9527 8.16C83.814 8.20267 83.6594 8.24 83.4887 8.272C83.3287 8.304 83.158 8.33067 82.9767 8.352C82.7954 8.37333 82.614 8.4 82.4327 8.432C82.262 8.464 82.0914 8.50667 81.9207 8.56C81.7607 8.61333 81.6167 8.688 81.4887 8.784C81.3714 8.86933 81.2754 8.98133 81.2007 9.12C81.126 9.25867 81.0887 9.43467 81.0887 9.648C81.0887 9.85067 81.126 10.0213 81.2007 10.16C81.2754 10.2987 81.3767 10.4107 81.5047 10.496C81.6327 10.5707 81.782 10.624 81.9527 10.656C82.1234 10.688 82.2994 10.704 82.4807 10.704C82.9287 10.704 83.2754 10.6293 83.5207 10.48C83.766 10.3307 83.9474 10.1547 84.0647 9.952C84.182 9.73867 84.2514 9.52533 84.2727 9.312C84.3047 9.09867 84.3207 8.928 84.3207 8.8V7.952ZM91.2362 3.728H92.9002V5.248H91.2362V9.344C91.2362 9.728 91.3002 9.984 91.4282 10.112C91.5562 10.24 91.8122 10.304 92.1962 10.304C92.3242 10.304 92.4469 10.2987 92.5642 10.288C92.6815 10.2773 92.7935 10.2613 92.9002 10.24V12C92.7082 12.032 92.4949 12.0533 92.2602 12.064C92.0255 12.0747 91.7962 12.08 91.5722 12.08C91.2202 12.08 90.8842 12.0533 90.5642 12C90.2549 11.9573 89.9775 11.8667 89.7322 11.728C89.4975 11.5893 89.3109 11.392 89.1722 11.136C89.0335 10.88 88.9642 10.544 88.9642 10.128V5.248H87.5882V3.728H88.9642V1.248H91.2362V3.728ZM96.3172 2.448H94.0452V0.575999H96.3172V2.448ZM94.0452 3.728H96.3172V12H94.0452V3.728ZM100.122 7.872C100.122 8.20267 100.154 8.528 100.218 8.848C100.282 9.15733 100.389 9.44 100.538 9.696C100.698 9.94133 100.906 10.1387 101.162 10.288C101.418 10.4373 101.738 10.512 102.122 10.512C102.506 10.512 102.826 10.4373 103.082 10.288C103.349 10.1387 103.557 9.94133 103.706 9.696C103.866 9.44 103.978 9.15733 104.042 8.848C104.106 8.528 104.138 8.20267 104.138 7.872C104.138 7.54133 104.106 7.216 104.042 6.896C103.978 6.576 103.866 6.29333 103.706 6.048C103.557 5.80267 103.349 5.60533 103.082 5.456C102.826 5.296 102.506 5.216 102.122 5.216C101.738 5.216 101.418 5.296 101.162 5.456C100.906 5.60533 100.698 5.80267 100.538 6.048C100.389 6.29333 100.282 6.576 100.218 6.896C100.154 7.216 100.122 7.54133 100.122 7.872ZM97.8502 7.872C97.8502 7.21067 97.9515 6.61333 98.1542 6.08C98.3569 5.536 98.6449 5.07733 99.0182 4.704C99.3915 4.32 99.8395 4.02667 100.362 3.824C100.885 3.61067 101.472 3.504 102.122 3.504C102.773 3.504 103.36 3.61067 103.882 3.824C104.416 4.02667 104.869 4.32 105.242 4.704C105.616 5.07733 105.904 5.536 106.106 6.08C106.309 6.61333 106.41 7.21067 106.41 7.872C106.41 8.53333 106.309 9.13067 106.106 9.664C105.904 10.1973 105.616 10.656 105.242 11.04C104.869 11.4133 104.416 11.7013 103.882 11.904C103.36 12.1067 102.773 12.208 102.122 12.208C101.472 12.208 100.885 12.1067 100.362 11.904C99.8395 11.7013 99.3915 11.4133 99.0182 11.04C98.6449 10.656 98.3569 10.1973 98.1542 9.664C97.9515 9.13067 97.8502 8.53333 97.8502 7.872ZM107.887 3.728H110.047V4.88H110.095C110.383 4.4 110.757 4.05333 111.215 3.84C111.674 3.616 112.143 3.504 112.623 3.504C113.231 3.504 113.727 3.58933 114.111 3.76C114.506 3.92 114.815 4.14933 115.039 4.448C115.263 4.736 115.418 5.09333 115.503 5.52C115.599 5.936 115.647 6.4 115.647 6.912V12H113.375V7.328C113.375 6.64533 113.269 6.13867 113.055 5.808C112.842 5.46667 112.463 5.296 111.919 5.296C111.301 5.296 110.853 5.48267 110.575 5.856C110.298 6.21867 110.159 6.82133 110.159 7.664V12H107.887V3.728ZM124.577 5.952H126.529C126.817 5.952 127.094 5.93067 127.361 5.888C127.628 5.84533 127.862 5.76533 128.065 5.648C128.268 5.52 128.428 5.344 128.545 5.12C128.673 4.896 128.737 4.60267 128.737 4.24C128.737 3.87733 128.673 3.584 128.545 3.36C128.428 3.136 128.268 2.96533 128.065 2.848C127.862 2.72 127.628 2.63467 127.361 2.592C127.094 2.54933 126.817 2.528 126.529 2.528H124.577V5.952ZM122.065 0.575999H127.217C127.932 0.575999 128.54 0.682666 129.041 0.896C129.542 1.09867 129.948 1.37067 130.257 1.712C130.577 2.05333 130.806 2.44267 130.945 2.88C131.094 3.31733 131.169 3.77067 131.169 4.24C131.169 4.69867 131.094 5.152 130.945 5.6C130.806 6.03733 130.577 6.42667 130.257 6.768C129.948 7.10933 129.542 7.38667 129.041 7.6C128.54 7.80267 127.932 7.904 127.217 7.904H124.577V12H122.065V0.575999ZM132.497 3.728H134.657V5.264H134.689C134.795 5.008 134.939 4.77333 135.121 4.56C135.302 4.336 135.51 4.14933 135.745 4C135.979 3.84 136.23 3.71733 136.497 3.632C136.763 3.54667 137.041 3.504 137.329 3.504C137.478 3.504 137.643 3.53067 137.825 3.584V5.696C137.718 5.67467 137.59 5.65867 137.441 5.648C137.291 5.62667 137.147 5.616 137.009 5.616C136.593 5.616 136.241 5.68533 135.953 5.824C135.665 5.96267 135.43 6.15467 135.249 6.4C135.078 6.63467 134.955 6.912 134.881 7.232C134.806 7.552 134.769 7.89867 134.769 8.272V12H132.497V3.728ZM140.45 7.872C140.45 8.20267 140.482 8.528 140.546 8.848C140.61 9.15733 140.717 9.44 140.866 9.696C141.026 9.94133 141.234 10.1387 141.49 10.288C141.746 10.4373 142.066 10.512 142.45 10.512C142.834 10.512 143.154 10.4373 143.41 10.288C143.677 10.1387 143.885 9.94133 144.034 9.696C144.194 9.44 144.306 9.15733 144.37 8.848C144.434 8.528 144.466 8.20267 144.466 7.872C144.466 7.54133 144.434 7.216 144.37 6.896C144.306 6.576 144.194 6.29333 144.034 6.048C143.885 5.80267 143.677 5.60533 143.41 5.456C143.154 5.296 142.834 5.216 142.45 5.216C142.066 5.216 141.746 5.296 141.49 5.456C141.234 5.60533 141.026 5.80267 140.866 6.048C140.717 6.29333 140.61 6.576 140.546 6.896C140.482 7.216 140.45 7.54133 140.45 7.872ZM138.178 7.872C138.178 7.21067 138.28 6.61333 138.482 6.08C138.685 5.536 138.973 5.07733 139.346 4.704C139.72 4.32 140.168 4.02667 140.69 3.824C141.213 3.61067 141.8 3.504 142.45 3.504C143.101 3.504 143.688 3.61067 144.21 3.824C144.744 4.02667 145.197 4.32 145.57 4.704C145.944 5.07733 146.232 5.536 146.434 6.08C146.637 6.61333 146.738 7.21067 146.738 7.872C146.738 8.53333 146.637 9.13067 146.434 9.664C146.232 10.1973 145.944 10.656 145.57 11.04C145.197 11.4133 144.744 11.7013 144.21 11.904C143.688 12.1067 143.101 12.208 142.45 12.208C141.8 12.208 141.213 12.1067 140.69 11.904C140.168 11.7013 139.72 11.4133 139.346 11.04C138.973 10.656 138.685 10.1973 138.482 9.664C138.28 9.13067 138.178 8.53333 138.178 7.872ZM150.696 2.448H148.424V0.575999H150.696V2.448ZM147.064 12.96C147.181 13.0027 147.341 13.024 147.544 13.024C147.778 13.024 147.981 12.976 148.152 12.88C148.333 12.7947 148.424 12.5973 148.424 12.288V3.728H150.696V12.4C150.696 12.8267 150.648 13.1947 150.552 13.504C150.466 13.8133 150.312 14.0693 150.088 14.272C149.874 14.4853 149.581 14.64 149.208 14.736C148.834 14.8427 148.36 14.896 147.784 14.896C147.517 14.896 147.277 14.8747 147.064 14.832V12.96ZM158.237 6.976C158.13 6.4 157.938 5.96267 157.661 5.664C157.394 5.36533 156.983 5.216 156.429 5.216C156.066 5.216 155.762 5.28 155.517 5.408C155.282 5.52533 155.09 5.67467 154.941 5.856C154.802 6.03733 154.701 6.22933 154.637 6.432C154.583 6.63467 154.551 6.816 154.541 6.976H158.237ZM154.541 8.416C154.573 9.152 154.759 9.68533 155.101 10.016C155.442 10.3467 155.933 10.512 156.573 10.512C157.031 10.512 157.426 10.4 157.757 10.176C158.087 9.94133 158.29 9.696 158.365 9.44H160.365C160.045 10.432 159.554 11.1413 158.893 11.568C158.231 11.9947 157.431 12.208 156.493 12.208C155.842 12.208 155.255 12.1067 154.733 11.904C154.21 11.6907 153.767 11.392 153.405 11.008C153.042 10.624 152.759 10.1653 152.557 9.632C152.365 9.09867 152.269 8.512 152.269 7.872C152.269 7.25333 152.37 6.67733 152.573 6.144C152.775 5.61067 153.063 5.152 153.437 4.768C153.81 4.37333 154.253 4.064 154.765 3.84C155.287 3.616 155.863 3.504 156.493 3.504C157.197 3.504 157.81 3.64267 158.333 3.92C158.855 4.18667 159.282 4.54933 159.613 5.008C159.954 5.46667 160.199 5.98933 160.349 6.576C160.498 7.16267 160.551 7.776 160.509 8.416H154.541ZM167.488 6.64C167.339 5.69067 166.779 5.216 165.808 5.216C165.446 5.216 165.142 5.30133 164.896 5.472C164.651 5.632 164.448 5.84533 164.288 6.112C164.139 6.368 164.032 6.656 163.968 6.976C163.904 7.28533 163.872 7.59467 163.872 7.904C163.872 8.20267 163.904 8.50667 163.968 8.816C164.032 9.12533 164.134 9.408 164.272 9.664C164.422 9.90933 164.619 10.112 164.864 10.272C165.11 10.432 165.408 10.512 165.76 10.512C166.304 10.512 166.72 10.3627 167.008 10.064C167.307 9.75467 167.494 9.344 167.568 8.832H169.76C169.611 9.93067 169.184 10.768 168.48 11.344C167.776 11.92 166.875 12.208 165.776 12.208C165.158 12.208 164.587 12.1067 164.064 11.904C163.552 11.6907 163.115 11.3973 162.752 11.024C162.39 10.6507 162.107 10.208 161.904 9.696C161.702 9.17333 161.6 8.60267 161.6 7.984C161.6 7.344 161.691 6.752 161.872 6.208C162.064 5.65333 162.342 5.17867 162.704 4.784C163.067 4.37867 163.51 4.064 164.032 3.84C164.555 3.616 165.152 3.504 165.824 3.504C166.315 3.504 166.784 3.568 167.232 3.696C167.691 3.824 168.096 4.02133 168.448 4.288C168.811 4.544 169.104 4.86933 169.328 5.264C169.552 5.648 169.68 6.10667 169.712 6.64H167.488ZM173.924 3.728H175.588V5.248H173.924V9.344C173.924 9.728 173.988 9.984 174.116 10.112C174.244 10.24 174.5 10.304 174.884 10.304C175.012 10.304 175.134 10.2987 175.252 10.288C175.369 10.2773 175.481 10.2613 175.588 10.24V12C175.396 12.032 175.182 12.0533 174.948 12.064C174.713 12.0747 174.484 12.08 174.26 12.08C173.908 12.08 173.572 12.0533 173.252 12C172.942 11.9573 172.665 11.8667 172.42 11.728C172.185 11.5893 171.998 11.392 171.86 11.136C171.721 10.88 171.652 10.544 171.652 10.128V5.248H170.276V3.728H171.652V1.248H173.924V3.728Z" fill="black"/>
</svg>
