<svg width="193" height="32" viewBox="0 0 193 32" fill="none" xmlns="http://www.w3.org/2000/svg" title="Data Liberation Project">
<g clip-path="url(#clip0_444_669)">
<path d="M11.5736 11.9829L11.6616 17.7611L9.95069 10.7541C9.89016 10.5181 10.0136 10.2829 10.2264 10.2283L13.3838 9.41945C13.4694 9.39759 13.5608 9.40772 13.6432 9.44879L15.3752 10.2797L12.2536 11.1067C11.8534 11.2093 11.5736 11.5693 11.5734 11.9827L11.5736 11.9829Z" fill="#36453F"/>
<path d="M22.1924 14.1205C22.1924 14.1205 21.5881 14.1157 21.146 13.9464L21.2215 11.7586C21.2551 10.7882 21.8471 9.92075 22.7436 9.54849C22.7996 9.52529 22.8508 9.50662 22.8951 9.49408C23.3505 9.36422 25.5455 8.92582 26.0188 8.73115C26.4921 8.53648 27.6215 8.24448 27.7223 8.13275C27.7223 8.13275 27.2068 9.73675 25.2583 10.5466C25.2583 10.5466 26.5703 10.7712 27.1241 10.6224C27.1241 10.6224 26.7985 11.6269 24.3441 11.9933C24.3441 11.9933 24.9689 12.26 25.4748 12.284C25.4748 12.284 24.3932 13.2421 22.9468 12.9565C22.9468 12.9565 23.2257 13.3365 23.5503 13.4266C23.5503 13.4266 23.0265 13.8869 22.1591 13.7392C22.1591 13.7392 22.1351 13.8256 22.1927 14.1213L22.1924 14.1205Z" fill="#ECCB6B"/>
<path d="M14.3963 17.8168L14.8761 17.6832L15.0345 17.6392L20.2547 16.1859C20.5926 16.0918 20.8307 15.7902 20.8438 15.4395L21.0483 9.97549C21.0686 9.43042 20.5526 9.02269 20.0267 9.16909L15.5814 10.407L12.3681 11.3016C12.0139 11.4003 11.7713 11.7262 11.7787 12.0942L11.8875 17.471L11.9254 18.5059L12.9094 18.231L14.3582 17.8275L14.3614 17.8267L14.3966 17.8168H14.3963Z" fill="#ECCB6B"/>
<path d="M9.89363 16C9.89363 16 10.4848 15.8752 10.8846 15.621L10.3752 13.492C10.1494 12.5477 9.39656 11.8154 8.44376 11.6288C8.38429 11.617 8.33043 11.609 8.28456 11.6056C7.81256 11.569 5.57416 11.576 5.07149 11.4792C4.56883 11.3826 3.40403 11.321 3.28296 11.2317C3.28296 11.2317 4.10723 12.701 6.17789 13.1069C6.17789 13.1069 4.93683 13.588 4.36429 13.5522C4.36429 13.5522 4.88323 14.4717 7.36163 14.3426C7.36163 14.3426 6.80243 14.7282 6.31149 14.8525C6.31149 14.8525 7.56216 15.5762 8.92269 15.0088C8.92269 15.0088 8.72483 15.4368 8.42483 15.5896C8.42483 15.5896 9.02963 15.9362 9.85043 15.6189C9.85043 15.6189 9.89123 15.6989 9.89336 16H9.89363Z" fill="#36453F"/>
<path d="M14.6208 17.9101C14.6256 17.9002 14.6726 17.7949 14.6424 17.6282L14.6744 17.6194L14.7046 17.6111C14.7443 17.6823 14.7414 17.7866 14.6208 17.9101Z" fill="#ECCB6B"/>
<path d="M14.382 18.4277C14.4585 18.3802 15.0249 18.0637 15.0601 17.989C15.1308 17.8384 14.914 17.5706 14.914 17.5706C14.9646 17.0893 14.9148 16.7021 14.9358 16.444C14.9758 15.9541 15.0542 15.4165 14.9881 14.8864C14.8777 14 13.9588 13.9864 14.0654 14.3269C14.1721 14.6674 14.0793 15.1256 14.0577 15.3613C14.0358 15.597 13.9044 15.465 13.9428 15.8554C13.9809 16.2458 13.6012 17.0832 13.443 17.3325C13.4206 17.4912 13.462 17.8498 13.5916 18.2357C13.6473 18.3248 14.2105 18.5338 14.3822 18.4274L14.382 18.4277Z" fill="#36453F"/>
<path d="M19.0739 16.5138C19.0704 16.517 19.0165 16.568 18.9189 16.6965C18.8184 16.829 18.7283 17.2973 18.7008 17.4437C18.6733 17.5901 18.5365 18.7674 18.5099 19.3178C18.4755 20.0346 17.4149 21.488 17.4149 21.488L17.7312 24.1645L17.7427 24.2613L18.0005 26.4437C18.0211 26.6165 18.1659 28.1338 18.2048 28.3562C18.048 28.3842 17.8907 28.409 17.7328 28.4312C17.7029 28.4354 17.6728 28.4397 17.6429 28.4434C17.5813 28.4517 17.5195 28.4594 17.4573 28.4669C16.9941 28.5221 16.5261 28.553 16.0541 28.5592C15.4256 28.5517 14.8037 28.5005 14.1907 28.4066C14.0749 28.3888 13.9595 28.3696 13.8445 28.3485C13.852 28.2752 13.9971 26.1264 14.0365 25.7005C14.0584 25.4624 14.08 25.2248 14.1013 24.9888V24.9882C14.112 24.8704 14.1224 24.7536 14.1328 24.637C14.3245 22.4776 14.472 20.5818 14.472 20.5818C14.2739 20.0186 13.9917 19.6816 13.8419 19.2757C13.7064 18.9093 13.4712 17.765 13.4712 17.765L14.6469 17.7405L14.6541 17.7389L14.7205 17.7256H14.7213L15.0549 17.6325L15.5747 17.4877L15.7344 17.4432L19.0744 16.5133L19.0739 16.5138Z" fill="#36453F"/>
<path d="M16.2999 19.7968C16.2999 19.7968 15.9797 19.7178 15.9199 19.2434C15.861 18.7749 15.4415 18.2474 15.1714 18.0298L15.481 18.1909C15.793 18.4069 16.1151 18.761 16.2463 19.3352C16.2895 19.2021 16.4458 18.9957 16.541 18.9149C16.541 18.9149 16.4386 19.6693 16.2999 19.7968Z" fill="#ECCB6B"/>
<path d="M14.9497 17.9162C14.9545 17.9064 15.0017 17.8 14.9716 17.6317L15.0038 17.6229L15.0342 17.6144C15.0742 17.6864 15.0713 17.7914 14.9497 17.9162Z" fill="#ECCB6B"/>
<path d="M16.1106 20.5861C16.1106 20.5861 17.4114 20.5269 18.0317 19.2419C18.0317 19.2419 18.0317 20.048 17.4634 20.5733C16.9151 21.0803 16.8818 21.5488 16.9647 22.1424C16.9647 22.1424 16.6869 20.6608 16.1106 20.5861Z" fill="#ECCB6B"/>
<path d="M28.8745 14.2803C28.6737 14.307 28.5295 14.488 28.5508 14.6894C28.5961 15.1222 28.6191 15.5592 28.6191 16C28.6191 17.6686 28.2924 19.2867 27.6481 20.8102C27.23 21.799 26.6905 22.7198 26.0375 23.5622C25.7183 23.9734 25.3721 24.3659 24.9999 24.7384C23.8647 25.8734 22.5431 26.7646 21.0716 27.387C19.5481 28.0312 17.93 28.3579 16.2615 28.3579C14.5929 28.3579 12.9748 28.0312 11.4513 27.387C10.1452 26.8344 8.95667 26.0702 7.9124 25.1115C7.7804 24.9902 7.65054 24.8659 7.52307 24.7384C6.38814 23.6032 5.49694 22.2816 4.87454 20.8102C4.48174 19.8811 4.2068 18.9166 4.0524 17.927C4.0212 17.7264 3.83454 17.5883 3.6332 17.615C3.4252 17.6424 3.27934 17.8352 3.3116 18.0427C3.4756 19.0928 3.76707 20.1163 4.1844 21.1024C4.84467 22.6632 5.78947 24.0651 6.9932 25.2688C7.13267 25.4083 7.2748 25.5443 7.4196 25.6771C8.52387 26.6878 9.77934 27.4939 11.1593 28.0776C12.7753 28.7614 14.4921 29.1078 16.2615 29.1078C18.0308 29.1078 19.7473 28.7614 21.3636 28.0776C22.9244 27.4174 24.3263 26.4726 25.53 25.2688C25.9284 24.8704 26.2985 24.4499 26.6393 24.0096C27.3281 23.1198 27.8972 22.1467 28.3388 21.1027C29.0225 19.4867 29.3689 17.7699 29.3689 16.0006C29.3689 15.5347 29.3449 15.0726 29.2969 14.615C29.2748 14.4046 29.0847 14.2531 28.8748 14.2808L28.8745 14.2803ZM7.52254 7.26162C8.65774 6.12669 9.97934 5.23549 11.4508 4.61309C12.9743 3.96882 14.5924 3.64216 16.2609 3.64216C17.9295 3.64216 19.5476 3.96882 21.0711 4.61309C22.0799 5.04002 23.0185 5.59309 23.8748 6.26456C24.0313 6.38722 24.2569 6.36509 24.3876 6.21522C24.5289 6.05309 24.5049 5.80589 24.3359 5.67336C23.4281 4.96162 22.4329 4.37522 21.3633 3.92296C19.7473 3.23922 18.0305 2.89282 16.2612 2.89282C14.4919 2.89282 12.7753 3.23922 11.1591 3.92296C9.598 4.58322 8.1964 5.52802 6.99267 6.73176C6.56947 7.15496 6.17854 7.60216 5.82067 8.07229C5.694 8.23869 5.7268 8.47656 5.8948 8.60109C6.05934 8.72349 6.29187 8.69096 6.41614 8.52776C6.754 8.08376 7.12307 7.66109 7.52254 7.26162Z" fill="#36453F"/>
</g>
<path d="M191.074 20.208C190.168 20.208 189.522 19.9467 189.138 19.424C188.765 18.8907 188.578 18.2027 188.578 17.36V13.616H187.458V12.24L188.674 12.16L188.898 10.016H190.434V12.16H192.434V13.616H190.434V17.36C190.434 18.2773 190.802 18.736 191.538 18.736C191.677 18.736 191.821 18.72 191.97 18.688C192.12 18.6453 192.248 18.6027 192.354 18.56L192.674 19.92C192.461 19.9947 192.216 20.0587 191.938 20.112C191.672 20.176 191.384 20.208 191.074 20.208Z" fill="black"/>
<path d="M184.352 20.208C183.637 20.208 182.992 20.048 182.416 19.728C181.851 19.3974 181.397 18.928 181.056 18.32C180.725 17.7014 180.56 16.96 180.56 16.096C180.56 15.2214 180.741 14.48 181.104 13.872C181.467 13.2534 181.947 12.784 182.544 12.464C183.152 12.1334 183.803 11.968 184.496 11.968C184.997 11.968 185.435 12.0534 185.808 12.224C186.181 12.3947 186.512 12.6027 186.8 12.848L185.904 14.048C185.701 13.8667 185.493 13.728 185.28 13.632C185.067 13.5254 184.837 13.472 184.592 13.472C183.963 13.472 183.445 13.712 183.04 14.192C182.645 14.672 182.448 15.3067 182.448 16.096C182.448 16.8747 182.64 17.504 183.024 17.984C183.419 18.464 183.925 18.704 184.544 18.704C184.853 18.704 185.141 18.64 185.408 18.512C185.685 18.3734 185.936 18.2134 186.16 18.032L186.912 19.248C186.549 19.568 186.144 19.808 185.696 19.968C185.248 20.128 184.8 20.208 184.352 20.208Z" fill="black"/>
<path d="M176.323 20.208C175.597 20.208 174.941 20.048 174.355 19.728C173.768 19.3974 173.304 18.928 172.963 18.32C172.621 17.7014 172.451 16.96 172.451 16.096C172.451 15.2427 172.621 14.5067 172.963 13.888C173.315 13.2694 173.768 12.7947 174.323 12.464C174.877 12.1334 175.459 11.968 176.067 11.968C176.781 11.968 177.379 12.128 177.859 12.448C178.339 12.7574 178.701 13.1947 178.947 13.76C179.192 14.3147 179.315 14.96 179.315 15.696C179.315 16.08 179.288 16.3787 179.235 16.592H174.243C174.328 17.2854 174.579 17.824 174.995 18.208C175.411 18.592 175.933 18.784 176.563 18.784C176.904 18.784 177.219 18.736 177.507 18.64C177.805 18.5334 178.099 18.3894 178.387 18.208L179.011 19.36C178.637 19.6054 178.221 19.808 177.763 19.968C177.304 20.128 176.824 20.208 176.323 20.208ZM174.227 15.344H177.715C177.715 14.736 177.581 14.2614 177.315 13.92C177.048 13.568 176.648 13.392 176.115 13.392C175.656 13.392 175.245 13.5627 174.883 13.904C174.531 14.2347 174.312 14.7147 174.227 15.344Z" fill="black"/>
<path d="M168.135 23.312C167.847 23.312 167.602 23.2907 167.399 23.248C167.186 23.2053 167.005 23.1573 166.855 23.104L167.207 21.728C167.314 21.76 167.426 21.7867 167.543 21.808C167.65 21.84 167.762 21.856 167.879 21.856C168.231 21.856 168.466 21.7333 168.583 21.488C168.711 21.2533 168.775 20.9067 168.775 20.448V12.16H170.631V20.416C170.631 20.9707 170.551 21.4667 170.391 21.904C170.231 22.3413 169.97 22.6827 169.607 22.928C169.245 23.184 168.754 23.312 168.135 23.312ZM169.703 10.784C169.373 10.784 169.106 10.688 168.903 10.496C168.701 10.304 168.599 10.048 168.599 9.72799C168.599 9.41865 168.701 9.16799 168.903 8.97599C169.106 8.78399 169.373 8.68799 169.703 8.68799C170.034 8.68799 170.301 8.78399 170.503 8.97599C170.706 9.16799 170.807 9.41865 170.807 9.72799C170.807 10.048 170.706 10.304 170.503 10.496C170.301 10.688 170.034 10.784 169.703 10.784Z" fill="black"/>
<path d="M163.194 20.208C162.544 20.208 161.936 20.048 161.37 19.728C160.805 19.3974 160.346 18.928 159.994 18.32C159.642 17.7014 159.466 16.96 159.466 16.096C159.466 15.2214 159.642 14.48 159.994 13.872C160.346 13.2534 160.805 12.784 161.37 12.464C161.936 12.1334 162.544 11.968 163.194 11.968C163.856 11.968 164.469 12.1334 165.034 12.464C165.6 12.784 166.058 13.2534 166.41 13.872C166.762 14.48 166.938 15.2214 166.938 16.096C166.938 16.96 166.762 17.7014 166.41 18.32C166.058 18.928 165.6 19.3974 165.034 19.728C164.469 20.048 163.856 20.208 163.194 20.208ZM163.194 18.704C163.77 18.704 164.224 18.464 164.554 17.984C164.885 17.504 165.05 16.8747 165.05 16.096C165.05 15.3067 164.885 14.672 164.554 14.192C164.224 13.712 163.77 13.472 163.194 13.472C162.618 13.472 162.165 13.712 161.834 14.192C161.514 14.672 161.354 15.3067 161.354 16.096C161.354 16.8747 161.514 17.504 161.834 17.984C162.165 18.464 162.618 18.704 163.194 18.704Z" fill="black"/>
<path d="M154.166 20.016V12.16H155.686L155.814 13.552H155.878C156.155 13.04 156.491 12.6507 156.886 12.384C157.28 12.1067 157.686 11.968 158.102 11.968C158.475 11.968 158.774 12.0214 158.998 12.128L158.678 13.728C158.539 13.6854 158.411 13.6534 158.294 13.632C158.176 13.6107 158.032 13.6 157.862 13.6C157.552 13.6 157.227 13.7227 156.886 13.968C156.544 14.2027 156.251 14.6187 156.006 15.216V20.016H154.166Z" fill="black"/>
<path d="M145.013 20.016V9.552H148.309C149.088 9.552 149.781 9.65334 150.389 9.856C150.997 10.0587 151.477 10.3947 151.829 10.864C152.181 11.3333 152.357 11.9733 152.357 12.784C152.357 13.552 152.181 14.1867 151.829 14.688C151.477 15.1893 151.003 15.5627 150.405 15.808C149.808 16.0533 149.131 16.176 148.373 16.176H146.869V20.016H145.013ZM146.869 14.688H148.229C149.765 14.688 150.533 14.0533 150.533 12.784C150.533 12.1227 150.331 11.6693 149.925 11.424C149.531 11.168 148.944 11.04 148.165 11.04H146.869V14.688Z" fill="black"/>
<path d="M132.697 20.016V12.16H134.217L134.345 13.216H134.409C134.761 12.8747 135.145 12.5814 135.561 12.336C135.977 12.0907 136.452 11.968 136.985 11.968C137.828 11.968 138.441 12.24 138.825 12.784C139.209 13.328 139.401 14.096 139.401 15.088V20.016H137.561V15.328C137.561 14.6774 137.465 14.2187 137.273 13.952C137.081 13.6854 136.766 13.552 136.329 13.552C135.988 13.552 135.684 13.6374 135.417 13.808C135.161 13.968 134.868 14.208 134.537 14.528V20.016H132.697Z" fill="black"/>
<path d="M127.132 20.208C126.481 20.208 125.873 20.048 125.308 19.728C124.742 19.3974 124.284 18.928 123.932 18.32C123.58 17.7014 123.404 16.96 123.404 16.096C123.404 15.2214 123.58 14.48 123.932 13.872C124.284 13.2534 124.742 12.784 125.308 12.464C125.873 12.1334 126.481 11.968 127.132 11.968C127.793 11.968 128.406 12.1334 128.972 12.464C129.537 12.784 129.996 13.2534 130.348 13.872C130.7 14.48 130.876 15.2214 130.876 16.096C130.876 16.96 130.7 17.7014 130.348 18.32C129.996 18.928 129.537 19.3974 128.972 19.728C128.406 20.048 127.793 20.208 127.132 20.208ZM127.132 18.704C127.708 18.704 128.161 18.464 128.492 17.984C128.822 17.504 128.988 16.8747 128.988 16.096C128.988 15.3067 128.822 14.672 128.492 14.192C128.161 13.712 127.708 13.472 127.132 13.472C126.556 13.472 126.102 13.712 125.772 14.192C125.452 14.672 125.292 15.3067 125.292 16.096C125.292 16.8747 125.452 17.504 125.772 17.984C126.102 18.464 126.556 18.704 127.132 18.704Z" fill="black"/>
<path d="M119.728 20.016V12.16H121.568V20.016H119.728ZM120.656 10.784C120.326 10.784 120.059 10.688 119.856 10.496C119.654 10.304 119.552 10.048 119.552 9.72799C119.552 9.41865 119.654 9.16799 119.856 8.97599C120.059 8.78399 120.326 8.68799 120.656 8.68799C120.987 8.68799 121.254 8.78399 121.456 8.97599C121.659 9.16799 121.76 9.41865 121.76 9.72799C121.76 10.048 121.659 10.304 121.456 10.496C121.254 10.688 120.987 10.784 120.656 10.784Z" fill="black"/>
<path d="M116.715 20.208C115.808 20.208 115.163 19.9467 114.779 19.424C114.406 18.8907 114.219 18.2027 114.219 17.36V13.616H113.099V12.24L114.315 12.16L114.539 10.016H116.075V12.16H118.075V13.616H116.075V17.36C116.075 18.2773 116.443 18.736 117.179 18.736C117.318 18.736 117.462 18.72 117.611 18.688C117.76 18.6453 117.888 18.6027 117.995 18.56L118.315 19.92C118.102 19.9947 117.856 20.0587 117.579 20.112C117.312 20.176 117.024 20.208 116.715 20.208Z" fill="black"/>
<path d="M107.851 20.208C107.168 20.208 106.608 19.9947 106.171 19.568C105.744 19.1414 105.531 18.5867 105.531 17.904C105.531 17.0614 105.899 16.4107 106.635 15.952C107.371 15.4827 108.544 15.1627 110.155 14.992C110.144 14.576 110.032 14.2187 109.819 13.92C109.616 13.6107 109.248 13.456 108.715 13.456C108.331 13.456 107.952 13.5307 107.579 13.68C107.216 13.8294 106.859 14.0107 106.507 14.224L105.835 12.992C106.272 12.7147 106.763 12.4747 107.307 12.272C107.862 12.0694 108.448 11.968 109.067 11.968C110.048 11.968 110.779 12.2614 111.259 12.848C111.75 13.424 111.995 14.2614 111.995 15.36V20.016H110.475L110.347 19.152H110.283C109.931 19.4507 109.552 19.7014 109.147 19.904C108.752 20.1067 108.32 20.208 107.851 20.208ZM108.443 18.768C108.763 18.768 109.051 18.6934 109.307 18.544C109.574 18.384 109.856 18.1707 110.155 17.904V16.144C109.088 16.2827 108.347 16.4907 107.931 16.768C107.515 17.0347 107.307 17.3654 107.307 17.76C107.307 18.112 107.414 18.368 107.627 18.528C107.84 18.688 108.112 18.768 108.443 18.768Z" fill="black"/>
<path d="M100.4 20.016V12.16H101.92L102.048 13.552H102.112C102.389 13.04 102.725 12.6507 103.12 12.384C103.515 12.1067 103.92 11.968 104.336 11.968C104.709 11.968 105.008 12.0214 105.232 12.128L104.912 13.728C104.773 13.6854 104.645 13.6534 104.528 13.632C104.411 13.6107 104.267 13.6 104.096 13.6C103.787 13.6 103.461 13.7227 103.12 13.968C102.779 14.2027 102.485 14.6187 102.24 15.216V20.016H100.4Z" fill="black"/>
<path d="M95.6508 20.208C94.9255 20.208 94.2695 20.048 93.6828 19.728C93.0961 19.3974 92.6321 18.928 92.2908 18.32C91.9495 17.7014 91.7788 16.96 91.7788 16.096C91.7788 15.2427 91.9495 14.5067 92.2908 13.888C92.6428 13.2694 93.0961 12.7947 93.6508 12.464C94.2055 12.1334 94.7868 11.968 95.3948 11.968C96.1095 11.968 96.7068 12.128 97.1868 12.448C97.6668 12.7574 98.0295 13.1947 98.2748 13.76C98.5201 14.3147 98.6428 14.96 98.6428 15.696C98.6428 16.08 98.6161 16.3787 98.5628 16.592H93.5708C93.6561 17.2854 93.9068 17.824 94.3228 18.208C94.7388 18.592 95.2615 18.784 95.8908 18.784C96.2321 18.784 96.5468 18.736 96.8348 18.64C97.1335 18.5334 97.4268 18.3894 97.7148 18.208L98.3388 19.36C97.9655 19.6054 97.5495 19.808 97.0908 19.968C96.6321 20.128 96.1521 20.208 95.6508 20.208ZM93.5548 15.344H97.0428C97.0428 14.736 96.9095 14.2614 96.6428 13.92C96.3761 13.568 95.9761 13.392 95.4428 13.392C94.9841 13.392 94.5735 13.5627 94.2108 13.904C93.8588 14.2347 93.6401 14.7147 93.5548 15.344Z" fill="black"/>
<path d="M87.0831 20.208C86.3365 20.208 85.6218 19.8666 84.9391 19.184H84.8911L84.7311 20.016H83.2751V8.71997H85.1151V11.632L85.0671 12.944C85.3978 12.656 85.7605 12.4213 86.1551 12.24C86.5498 12.0586 86.9445 11.968 87.3391 11.968C88.3205 11.968 89.0831 12.3306 89.6271 13.056C90.1711 13.7813 90.4431 14.7466 90.4431 15.952C90.4431 16.848 90.2831 17.616 89.9631 18.256C89.6431 18.8853 89.2271 19.3706 88.7151 19.712C88.2138 20.0426 87.6698 20.208 87.0831 20.208ZM86.6991 18.688C87.2218 18.688 87.6591 18.4586 88.0111 18C88.3631 17.5413 88.5391 16.8693 88.5391 15.984C88.5391 15.1946 88.4058 14.5813 88.1391 14.144C87.8725 13.7066 87.4405 13.488 86.8431 13.488C86.2885 13.488 85.7125 13.7813 85.1151 14.368V18.032C85.3925 18.2666 85.6645 18.4373 85.9311 18.544C86.2085 18.64 86.4645 18.688 86.6991 18.688Z" fill="black"/>
<path d="M79.0876 20.016V12.16H80.9276V20.016H79.0876ZM80.0156 10.784C79.685 10.784 79.4183 10.688 79.2156 10.496C79.013 10.304 78.9116 10.048 78.9116 9.72799C78.9116 9.41865 79.013 9.16799 79.2156 8.97599C79.4183 8.78399 79.685 8.68799 80.0156 8.68799C80.3463 8.68799 80.613 8.78399 80.8156 8.97599C81.0183 9.16799 81.1196 9.41865 81.1196 9.72799C81.1196 10.048 81.0183 10.304 80.8156 10.496C80.613 10.688 80.3463 10.784 80.0156 10.784Z" fill="black"/>
<path d="M71.2163 20.016V9.552H73.0723V18.448H77.4243V20.016H71.2163Z" fill="black"/>
<path d="M61.5073 20.208C60.8246 20.208 60.2646 19.9947 59.8273 19.568C59.4006 19.1414 59.1873 18.5867 59.1873 17.904C59.1873 17.0614 59.5553 16.4107 60.2913 15.952C61.0273 15.4827 62.2006 15.1627 63.8113 14.992C63.8006 14.576 63.6886 14.2187 63.4753 13.92C63.2726 13.6107 62.9046 13.456 62.3713 13.456C61.9873 13.456 61.6086 13.5307 61.2353 13.68C60.8726 13.8294 60.5153 14.0107 60.1633 14.224L59.4913 12.992C59.9286 12.7147 60.4193 12.4747 60.9633 12.272C61.5179 12.0694 62.1046 11.968 62.7233 11.968C63.7046 11.968 64.4353 12.2614 64.9153 12.848C65.4059 13.424 65.6513 14.2614 65.6513 15.36V20.016H64.1313L64.0033 19.152H63.9393C63.5873 19.4507 63.2086 19.7014 62.8033 19.904C62.4086 20.1067 61.9766 20.208 61.5073 20.208ZM62.0993 18.768C62.4193 18.768 62.7073 18.6934 62.9633 18.544C63.2299 18.384 63.5126 18.1707 63.8113 17.904V16.144C62.7446 16.2827 62.0033 16.4907 61.5873 16.768C61.1713 17.0347 60.9633 17.3654 60.9633 17.76C60.9633 18.112 61.0699 18.368 61.2833 18.528C61.4966 18.688 61.7686 18.768 62.0993 18.768Z" fill="black"/>
<path d="M56.9339 20.208C56.0272 20.208 55.3819 19.9467 54.9979 19.424C54.6245 18.8907 54.4379 18.2027 54.4379 17.36V13.616H53.3179V12.24L54.5339 12.16L54.7579 10.016H56.2939V12.16H58.2939V13.616H56.2939V17.36C56.2939 18.2773 56.6619 18.736 57.3979 18.736C57.5365 18.736 57.6805 18.72 57.8299 18.688C57.9792 18.6453 58.1072 18.6027 58.2139 18.56L58.5339 19.92C58.3205 19.9947 58.0752 20.0587 57.7979 20.112C57.5312 20.176 57.2432 20.208 56.9339 20.208Z" fill="black"/>
<path d="M48.0698 20.208C47.3871 20.208 46.8271 19.9947 46.3898 19.568C45.9631 19.1414 45.7498 18.5867 45.7498 17.904C45.7498 17.0614 46.1178 16.4107 46.8538 15.952C47.5898 15.4827 48.7631 15.1627 50.3738 14.992C50.3631 14.576 50.2511 14.2187 50.0378 13.92C49.8351 13.6107 49.4671 13.456 48.9338 13.456C48.5498 13.456 48.1711 13.5307 47.7978 13.68C47.4351 13.8294 47.0778 14.0107 46.7258 14.224L46.0538 12.992C46.4911 12.7147 46.9818 12.4747 47.5258 12.272C48.0804 12.0694 48.6671 11.968 49.2858 11.968C50.2671 11.968 50.9978 12.2614 51.4778 12.848C51.9684 13.424 52.2138 14.2614 52.2138 15.36V20.016H50.6938L50.5658 19.152H50.5018C50.1498 19.4507 49.7711 19.7014 49.3658 19.904C48.9711 20.1067 48.5391 20.208 48.0698 20.208ZM48.6618 18.768C48.9818 18.768 49.2698 18.6934 49.5258 18.544C49.7924 18.384 50.0751 18.1707 50.3738 17.904V16.144C49.3071 16.2827 48.5658 16.4907 48.1498 16.768C47.7338 17.0347 47.5258 17.3654 47.5258 17.76C47.5258 18.112 47.6324 18.368 47.8458 18.528C48.0591 18.688 48.3311 18.768 48.6618 18.768Z" fill="black"/>
<path d="M36.3257 20.016V9.552H39.1257C40.7257 9.552 41.9737 9.984 42.8697 10.848C43.7657 11.712 44.2137 13.008 44.2137 14.736C44.2137 16.4747 43.771 17.792 42.8857 18.688C42.0004 19.5733 40.779 20.016 39.2217 20.016H36.3257ZM38.1817 18.512H38.9977C40.0537 18.512 40.8697 18.208 41.4457 17.6C42.0217 16.9813 42.3097 16.0267 42.3097 14.736C42.3097 13.456 42.0217 12.5227 41.4457 11.936C40.8697 11.3493 40.0537 11.056 38.9977 11.056H38.1817V18.512Z" fill="black"/>
<defs>
<clipPath id="clip0_444_669">
<rect width="26.6667" height="26.6667" fill="white" transform="translate(2.99243 2.66669)"/>
</clipPath>
</defs>
</svg>
