<svg width="137" height="24" viewBox="0 0 137 24" fill="none" xmlns="http://www.w3.org/2000/svg">
<g clip-path="url(#clip0_267_544)">
<g clip-path="url(#clip1_267_544)">
<path d="M15.2422 15.4836C17.5816 15.4836 19.3007 17.2779 19.3008 19.4953C19.3008 21.6974 17.5675 23.5206 15.2139 23.5207C12.8893 23.5207 11.1711 21.7271 11.1709 19.5246C11.1709 17.3078 12.9031 15.4838 15.2422 15.4836ZM24.6133 15.4836C26.0574 15.4836 26.9527 16.0237 27.6602 16.8117L26.5771 17.9933C26.0431 17.4241 25.4803 17.0305 24.5996 17.0305C23.3289 17.0305 22.4044 18.1383 22.4043 19.4953C22.4043 20.8808 23.3434 21.9894 24.6865 21.9894C25.5094 21.9893 26.1155 21.5952 26.6641 21.0266L27.7188 22.0764C26.9678 22.9223 26.0867 23.5206 24.5996 23.5207C22.3326 23.5207 20.6574 21.7271 20.6572 19.5246C20.6572 17.3219 22.3321 15.4838 24.6133 15.4836ZM55.2969 15.4836C57.7226 15.4836 58.9501 17.4092 58.9502 19.6408C58.9502 19.8011 58.9355 19.9472 58.9209 20.1223H53.3184C53.5208 21.3763 54.3873 22.0764 55.5137 22.0764C56.3655 22.0763 56.9718 21.7557 57.5781 21.1574L58.6035 22.0764C57.8816 22.952 56.8855 23.5207 55.4844 23.5207C53.2754 23.5206 51.5713 21.901 51.5713 19.509C51.5715 17.2926 53.1168 15.4837 55.2969 15.4836ZM80.5508 12.9601C82.4135 12.9601 83.5401 13.617 84.5068 14.55L83.3662 15.8771C82.5577 15.1189 81.691 14.6086 80.5361 14.6086C78.6012 14.6088 77.2012 16.2132 77.2012 18.2258C77.2012 20.239 78.6012 21.873 80.5361 21.8732C81.7778 21.8732 82.5725 21.3621 83.4385 20.5451L84.5801 21.7121C83.5257 22.8206 82.3701 23.5207 80.4785 23.5207C77.5329 23.5205 75.3379 21.2016 75.3379 18.2551C75.3381 15.3376 77.4897 12.9602 80.5508 12.9601ZM94.0225 15.4836C96.3612 15.4838 98.08 17.278 98.0801 19.4953C98.0801 21.6974 96.3469 23.5207 93.9932 23.5207C91.6683 23.5205 89.9504 21.7271 89.9502 19.5246C89.9502 17.3077 91.6834 15.4836 94.0225 15.4836ZM30.9814 20.0207C30.9815 21.2163 31.5734 21.9016 32.6133 21.9016C33.6239 21.9015 34.3311 21.1867 34.3311 19.9904V15.6447H36.0791V23.3459H34.3311V22.1506C33.8405 22.8794 33.1328 23.5059 31.9492 23.506C30.2309 23.506 29.2344 22.3391 29.2344 20.5451V15.6447H30.9814V20.0207ZM101.516 20.0207C101.516 21.2163 102.109 21.9016 103.148 21.9016C104.159 21.9014 104.866 21.1866 104.866 19.9904V15.6447H106.613V23.3459H104.866V22.1506C104.375 22.8796 103.667 23.506 102.483 23.506C100.766 23.5059 99.7695 22.3392 99.7695 20.5451V15.6447H101.516V20.0207ZM116.303 23.3459H114.556V22.0627C113.992 22.8648 113.198 23.506 111.956 23.506C110.165 23.506 108.418 22.062 108.418 19.4953C108.418 16.9281 110.137 15.4836 111.956 15.4836C113.212 15.4836 114.007 16.1252 114.556 16.84V12.6974H116.303V23.3459ZM71.7725 15.6447H73.8223V17.1613H71.7725V20.9387C71.7725 21.6244 72.1182 21.9014 72.71 21.9016C73.0998 21.9016 73.4465 21.814 73.793 21.6389V23.0832C73.3598 23.3317 72.8693 23.4777 72.2197 23.4777C70.9343 23.4777 70.0244 22.9083 70.0244 21.216V17.1613H69.0576V15.6447H70.0244V13.5295H71.7725V15.6447ZM4.26855 13.1359C7.44516 13.1359 9.64062 15.3377 9.64062 18.2258C9.64062 21.1141 7.44516 23.3459 4.26855 23.3459H0.5V13.1359H4.26855ZM47.1973 15.4836C48.8576 15.4837 49.8682 16.5492 49.8682 18.4308V23.3459H48.1211V18.9699C48.1211 17.7449 47.5581 17.0891 46.5762 17.0891C45.6233 17.0891 44.9444 17.759 44.9443 18.9992V23.3459H43.1973V18.9553C43.1972 17.7591 42.6197 17.0892 41.6523 17.0891C40.6848 17.0891 40.0206 17.8176 40.0205 19.0139V23.3459H38.2734V15.6447H40.0205V16.8117C40.5111 16.1259 41.1753 15.4837 42.3447 15.4836C43.442 15.4836 44.208 16.0231 44.6123 16.84C45.2333 16.0231 46.042 15.4836 47.1973 15.4836ZM64.8408 15.4836C66.5591 15.4836 67.5556 16.6509 67.5557 18.4445V23.3459H65.8086V18.9699C65.8086 17.7741 65.2168 17.0891 64.1768 17.0891C63.1659 17.0891 62.458 17.8029 62.458 18.9992V23.3459H60.7109V15.6447H62.458V16.84C62.9492 16.1108 63.657 15.4837 64.8408 15.4836ZM88.0879 23.3459H86.3408V12.6974H88.0879V23.3459ZM15.2139 17.0305C13.8134 17.0305 12.9181 18.1383 12.918 19.4953C12.918 20.866 13.8853 21.9892 15.2422 21.9894C16.6573 21.9894 17.5526 20.8812 17.5527 19.5246C17.5527 18.1537 16.5855 17.0306 15.2139 17.0305ZM93.9932 17.0305C92.5924 17.0306 91.6974 18.1384 91.6973 19.4953C91.6973 20.8662 92.6649 21.9894 94.0225 21.9894C95.437 21.9893 96.3319 20.8811 96.332 19.5246C96.332 18.1536 95.3646 17.0305 93.9932 17.0305ZM112.375 17.0158C111.176 17.0158 110.18 17.949 110.18 19.4953C110.18 21.0119 111.191 21.9748 112.375 21.9748C113.545 21.9747 114.584 20.9969 114.584 19.4953C114.584 17.9929 113.545 17.016 112.375 17.0158ZM2.27637 21.7121H4.26855C6.39117 21.7121 7.77734 20.2678 7.77734 18.2551C7.77719 16.2421 6.39106 14.7687 4.26855 14.7687H2.27637V21.7121ZM55.2822 16.9279C54.2138 16.928 53.4635 17.7592 53.3047 18.9553H57.2178C57.102 17.8176 56.4372 16.9279 55.2822 16.9279Z" fill="#0C1E27"/>
<path d="M119.319 2.58787C118.386 2.31846 117.29 2.21033 116.225 2.14419C115.898 2.12395 115.584 2.11428 115.279 2.11428C112.021 2.12123 110.042 3.19798 108.799 4.27444C107.561 5.3521 107.085 6.47235 107.068 6.52068L106.442 8.13143L105.309 6.82755C105.308 6.82755 105.304 6.82272 105.285 6.80037C105.263 6.77741 105.231 6.74207 105.187 6.69496C105.099 6.60193 104.964 6.46299 104.788 6.29325C104.435 5.95346 103.914 5.48862 103.262 5.00597C101.958 4.03734 100.133 3.01525 98.1054 2.72047C97.5827 2.64345 97.0944 2.60963 96.6348 2.60963C93.0587 2.60449 91.1981 4.67916 91.0473 4.84951L91.044 4.85314L90.3337 5.72935L89.5169 4.95342C89.5161 4.95342 89.5161 4.95281 89.4989 4.9368C89.4809 4.92109 89.4522 4.89512 89.412 4.86069C89.3326 4.79243 89.2089 4.68974 89.045 4.5641C88.7173 4.31311 88.229 3.9727 87.6105 3.63262C86.3725 2.95062 84.6266 2.28101 82.5907 2.28161C82.4777 2.28161 82.3628 2.28433 82.2447 2.28886C81.1133 2.33115 80.2564 2.55948 79.5878 2.86606L78.7206 0.941479C79.6527 0.512284 80.7948 0.225959 82.1676 0.176425C82.3093 0.170384 82.4498 0.167967 82.5907 0.167967C86.2013 0.18458 88.9107 1.8346 90.1715 2.77544C91.2202 1.88232 93.3708 0.500511 96.6348 0.495074C97.1952 0.495074 97.7875 0.536149 98.4077 0.628269C101.841 1.15804 104.497 3.17322 105.864 4.41911C106.198 3.93828 106.66 3.37407 107.281 2.80806C108.836 1.38275 111.426 -0.00781981 115.279 3.31041e-05C115.627 3.31041e-05 115.986 0.0109117 116.356 0.0341673C117.505 0.106657 118.708 0.251329 119.834 0.53917C119.926 0.583871 124.95 1.82855 127.903 6.01568C129.515 8.32775 129.965 10.5689 129.961 12.2594C129.96 13.1398 129.844 13.8722 129.718 14.4104C131.172 15.1501 134.009 16.9545 135.622 20.4539C136.198 21.7152 136.459 22.8744 136.5 23.9086L134.408 23.9946C134.378 23.2538 134.194 22.3775 133.721 21.3377C132.076 17.6743 128.48 16.1251 128.113 15.9913C128.089 15.9823 128.088 15.9816 128.088 15.9816L127.035 15.5954L127.487 14.5654C127.488 14.5633 127.49 14.5572 127.494 14.5476C127.502 14.5276 127.514 14.4932 127.531 14.4439C127.566 14.3467 127.614 14.1927 127.664 13.9903C127.765 13.5856 127.868 12.9885 127.867 12.2594C127.864 10.9298 127.538 9.17495 126.19 7.23077C124.149 4.25421 120.186 2.83796 119.319 2.58787Z" fill="#4294F0"/>
</g>
</g>
<defs>
<clipPath id="clip0_267_544">
<rect width="136" height="24" fill="white" transform="translate(0.5)"/>
</clipPath>
<clipPath id="clip1_267_544">
<rect width="136" height="24" fill="white" transform="translate(0.5)"/>
</clipPath>
</defs>
</svg>
