<svg width="193" height="20" viewBox="0 0 193 20" fill="none" xmlns="http://www.w3.org/2000/svg">
<path d="M116.869 17.2066L111.408 10.57H111.366V17.2066H107.878V2.7934H111.366V8.65641H111.428L116.682 2.7934H121.126L114.793 9.43L121.5 17.2066H116.869Z" fill="#0C1E27"/>
<path d="M106.275 15.4957C105.624 16.2685 104.821 16.8803 103.866 17.3311C102.911 17.7819 101.81 18.0074 100.564 18.0074C99.429 18.0074 98.3803 17.8141 97.4181 17.4277C96.456 17.0413 95.6219 16.4939 94.9158 15.7855C94.2098 15.077 93.656 14.2291 93.2546 13.2416C92.8531 12.2541 92.6523 11.1664 92.6523 9.97853C92.6523 8.76204 92.8565 7.66005 93.2649 6.67255C93.6733 5.68504 94.2375 4.84424 94.9574 4.15012C95.6773 3.45601 96.5217 2.9229 97.4908 2.5508C98.4599 2.17869 99.5051 1.99265 100.627 1.99265C101.665 1.99265 102.686 2.18227 103.689 2.56153C104.693 2.94079 105.507 3.49536 106.129 4.22526L103.721 6.71548C103.388 6.2432 102.952 5.89256 102.412 5.66358C101.872 5.43459 101.319 5.3201 100.751 5.3201C100.128 5.3201 99.5571 5.43817 99.0379 5.67431C98.5187 5.91045 98.0723 6.23604 97.6985 6.65108C97.3247 7.06612 97.034 7.55629 96.8263 8.1216C96.6187 8.68691 96.5148 9.30588 96.5148 9.97853C96.5148 10.6655 96.6187 11.2952 96.8263 11.8677C97.034 12.4401 97.3212 12.9303 97.6881 13.3382C98.055 13.7461 98.4945 14.0645 99.0067 14.2935C99.519 14.5225 100.08 14.637 100.689 14.637C101.395 14.637 102.011 14.4939 102.537 14.2076C103.063 13.9214 103.485 13.5493 103.804 13.0913L106.275 15.4957Z" fill="#0C1E27"/>
<path fill-rule="evenodd" clip-rule="evenodd" d="M91.851 9.99988C91.851 5.5774 88.2632 1.99265 83.8381 1.99265C79.4124 1.99265 75.8245 5.57764 75.8245 10.0001C75.8245 14.4226 79.4124 18.0074 83.8381 18.0074C88.2632 18.0074 91.851 14.4224 91.851 9.99988ZM81.4607 7.21325V5.19887L87.6032 4.20158V10.3252C87.9349 10.4715 88.1667 10.8038 88.1667 11.1904C88.1667 11.7121 87.7434 12.1356 87.2209 12.1356C86.6981 12.1356 86.2747 11.7121 86.2747 11.1904C86.2747 10.8038 86.5075 10.4715 86.8392 10.3252V8.95643V5.29749L82.2252 5.9625V7.08859L82.7546 7.00265C83.3432 6.9069 83.9322 6.81131 84.5214 6.7157L84.5239 6.71529L84.5271 6.71477L85.8168 6.50539V11.0609V15.6144L82.7546 15.11L82.7286 15.1057L82.7276 15.1055L82.7266 15.1053L82.7255 15.1052L82.7245 15.105C81.714 14.9391 80.7035 14.7733 79.693 14.6072V11.0556V7.50152C80.2818 7.4052 80.8714 7.30911 81.4607 7.21325ZM80.4298 8.27326V11.1008V13.9266C80.9417 13.9906 81.454 14.0556 81.966 14.1206L81.9668 14.1207L82.7327 14.2178C83.4995 14.3145 84.2677 14.4115 85.0351 14.5099V11.1051V7.69903L83.8329 7.8487L82.7327 7.98569L82.0683 8.06875C81.5221 8.13705 80.9757 8.20539 80.4298 8.27326ZM81.1667 12.6517V12.1169C81.446 12.128 81.7255 12.1395 82.005 12.151L82.0053 12.151L82.0075 12.1511L82.0079 12.1511L82.0084 12.1511C82.2497 12.1611 82.491 12.171 82.7323 12.1807C83.0917 12.195 83.4514 12.21 83.8114 12.2249L84.2983 12.2451V12.8532C84.0103 12.8345 83.7224 12.8161 83.4348 12.7976L83.4298 12.7973L82.7323 12.7524C82.2102 12.7192 81.6883 12.6857 81.1667 12.6517ZM81.1667 9.36805V9.90797L81.6651 9.88815L81.6656 9.88814C82.021 9.87399 82.3766 9.85984 82.7323 9.84589L83.293 9.82418C83.6279 9.81126 83.963 9.79832 84.2983 9.78504V9.17166L83.3467 9.23092L82.7323 9.26913C82.469 9.28563 82.2057 9.30233 81.9424 9.31904H81.9424C81.6837 9.33544 81.4252 9.35185 81.1667 9.36805ZM81.1667 11.5163V10.8683C81.4794 10.8644 81.7923 10.8603 82.1052 10.8561C82.3142 10.8534 82.5233 10.8506 82.7323 10.8479C83.0142 10.844 83.2963 10.8407 83.5786 10.8373C83.8184 10.8344 84.0583 10.8315 84.2983 10.8283V11.5647L84.2894 11.5645C83.7698 11.5561 83.2505 11.5477 82.7323 11.5399C82.4694 11.536 82.2066 11.532 81.9438 11.528C81.6847 11.524 81.4257 11.5201 81.1667 11.5163Z" fill="#0C1E27"/>
<path fill-rule="evenodd" clip-rule="evenodd" d="M68.4963 11.4861L71.6726 17.2066H75.8245L71.984 11.0383C72.9389 10.7532 73.6863 10.2782 74.226 9.61322C74.7658 8.9482 75.0357 8.12711 75.0357 7.14994C75.0357 6.32206 74.8765 5.6299 74.5582 5.07346C74.2399 4.51701 73.8143 4.06915 73.2815 3.72985C72.7486 3.39055 72.1466 3.14966 71.4754 3.00715C70.8041 2.86465 70.1156 2.7934 69.4098 2.7934H63.8047V17.2066H67.2923V11.4861H68.4963ZM71.2984 6.42931C71.4454 6.64104 71.5189 6.91766 71.5189 7.25916C71.5189 7.62799 71.4384 7.92851 71.2774 8.16073C71.1163 8.39295 70.9098 8.57053 70.6578 8.69348C70.4057 8.81642 70.1257 8.90179 69.8176 8.9496C69.5096 8.99741 69.2086 9.02132 68.9145 9.02132H67.2133V5.64044H69.1245C69.3906 5.64044 69.6671 5.66093 69.9542 5.70191C70.2412 5.74289 70.5002 5.82143 70.7313 5.93754C70.9623 6.05366 71.1513 6.21758 71.2984 6.42931Z" fill="#0C1E27"/>
<path d="M59.1738 17.2066L53.7124 10.57H53.6708V17.2066H50.1821V2.7934H53.6708V8.65641H53.7331L58.9869 2.7934H63.4309L57.0972 9.43L63.8047 17.2066H59.1738Z" fill="#0C1E27"/>
<path d="M48.5795 15.4957C47.9288 16.2685 47.1259 16.8803 46.1706 17.3311C45.2154 17.7819 44.1148 18.0074 42.8688 18.0074C41.7336 18.0074 40.6849 17.8141 39.7228 17.4277C38.7606 17.0413 37.9265 16.4939 37.2205 15.7855C36.5144 15.077 35.9607 14.2291 35.5592 13.2416C35.1577 12.2541 34.957 11.1664 34.957 9.97853C34.957 8.76204 35.1612 7.66005 35.5696 6.67255C35.978 5.68504 36.5421 4.84424 37.262 4.15012C37.9819 3.45601 38.8264 2.9229 39.7955 2.5508C40.7645 2.17869 41.8098 1.99265 42.9311 1.99265C43.9694 1.99265 44.9904 2.18227 45.9941 2.56153C46.9978 2.94079 47.8111 3.49536 48.4341 4.22526L46.0253 6.71548C45.693 6.2432 45.2569 5.89256 44.717 5.66358C44.1771 5.43459 43.6233 5.3201 43.0557 5.3201C42.4327 5.3201 41.8617 5.43817 41.3425 5.67431C40.8234 5.91045 40.3769 6.23604 40.0031 6.65108C39.6293 7.06612 39.3386 7.55629 39.1309 8.1216C38.9233 8.68691 38.8195 9.30588 38.8195 9.97853C38.8195 10.6655 38.9233 11.2952 39.1309 11.8677C39.3386 12.4401 39.6259 12.9303 39.9927 13.3382C40.3596 13.7461 40.7991 14.0645 41.3114 14.2935C41.8236 14.5225 42.3843 14.637 42.9934 14.637C43.6995 14.637 44.3155 14.4939 44.8416 14.2076C45.3677 13.9214 45.7899 13.5493 46.1083 13.0913L48.5795 15.4957Z" fill="#0C1E27"/>
<path d="M33.3543 12.0222C33.3543 12.9151 33.203 13.7278 32.9002 14.4602C32.5975 15.1927 32.1645 15.8205 31.6012 16.3437C31.0379 16.8668 30.3585 17.2749 29.5629 17.5679C28.7673 17.8609 27.8837 18.0074 26.9121 18.0074C25.9263 18.0074 25.0392 17.8609 24.2507 17.5679C23.4621 17.2749 22.7932 16.8668 22.244 16.3437C21.6949 15.8205 21.2724 15.1927 20.9767 14.4602C20.681 13.7278 20.5331 12.9151 20.5331 12.0222V2.7934H24.1239V11.7293C24.1239 12.1338 24.1767 12.5175 24.2823 12.8802C24.388 13.243 24.5499 13.5673 24.7682 13.8533C24.9864 14.1394 25.2751 14.3661 25.6342 14.5335C25.9932 14.7009 26.4262 14.7846 26.9332 14.7846C27.4401 14.7846 27.8731 14.7009 28.2322 14.5335C28.5913 14.3661 28.8835 14.1394 29.1088 13.8533C29.3341 13.5673 29.496 13.243 29.5946 12.8802C29.6932 12.5175 29.7424 12.1338 29.7424 11.7293V2.7934H33.3543V12.0222Z" fill="#0C1E27"/>
<path d="M14.49 17.2066L14.5772 7.00744H14.5118L10.5022 17.2066H7.88724L3.9866 7.00744H3.92123L4.0084 17.2066H0.5V2.7934H5.79528L9.30368 12.0358H9.39084L12.7467 2.7934H18.1291V17.2066H14.49Z" fill="#0C1E27"/>
<path d="M130.828 16V5.536H134.364C135.089 5.536 135.74 5.632 136.316 5.824C136.903 6.016 137.361 6.34133 137.692 6.8C138.033 7.248 138.204 7.86133 138.204 8.64C138.204 9.44 138.012 10.0853 137.628 10.576C137.255 11.0667 136.753 11.4187 136.124 11.632L138.62 16H136.54L134.284 11.904H132.684V16H130.828ZM132.684 10.432H134.172C134.887 10.432 135.431 10.2827 135.804 9.984C136.188 9.67467 136.38 9.22667 136.38 8.64C136.38 8.04267 136.188 7.62667 135.804 7.392C135.431 7.14667 134.887 7.024 134.172 7.024H132.684V10.432ZM143.341 16.192C142.615 16.192 141.959 16.032 141.373 15.712C140.786 15.3813 140.322 14.912 139.981 14.304C139.639 13.6853 139.469 12.944 139.469 12.08C139.469 11.2267 139.639 10.4907 139.981 9.872C140.333 9.25333 140.786 8.77867 141.341 8.448C141.895 8.11733 142.477 7.952 143.085 7.952C143.799 7.952 144.397 8.112 144.877 8.432C145.357 8.74133 145.719 9.17867 145.965 9.744C146.21 10.2987 146.333 10.944 146.333 11.68C146.333 12.064 146.306 12.3627 146.253 12.576H141.261C141.346 13.2693 141.597 13.808 142.013 14.192C142.429 14.576 142.951 14.768 143.581 14.768C143.922 14.768 144.237 14.72 144.525 14.624C144.823 14.5173 145.117 14.3733 145.405 14.192L146.029 15.344C145.655 15.5893 145.239 15.792 144.781 15.952C144.322 16.112 143.842 16.192 143.341 16.192ZM141.245 11.328H144.733C144.733 10.72 144.599 10.2453 144.333 9.904C144.066 9.552 143.666 9.376 143.133 9.376C142.674 9.376 142.263 9.54667 141.901 9.888C141.549 10.2187 141.33 10.6987 141.245 11.328ZM152.938 19.104V16.528L153.002 15.216C152.714 15.4933 152.383 15.728 152.01 15.92C151.637 16.1013 151.247 16.192 150.842 16.192C149.861 16.192 149.077 15.8293 148.49 15.104C147.903 14.3787 147.61 13.3707 147.61 12.08C147.61 11.2267 147.765 10.4907 148.074 9.872C148.394 9.25333 148.81 8.77867 149.322 8.448C149.834 8.11733 150.373 7.952 150.938 7.952C151.375 7.952 151.765 8.032 152.106 8.192C152.447 8.34133 152.783 8.576 153.114 8.896H153.162L153.322 8.144H154.778V19.104H152.938ZM151.29 14.672C151.877 14.672 152.426 14.3787 152.938 13.792V10.128C152.671 9.88267 152.405 9.712 152.138 9.616C151.871 9.52 151.605 9.472 151.338 9.472C150.837 9.472 150.405 9.70133 150.042 10.16C149.69 10.608 149.514 11.2427 149.514 12.064C149.514 12.9067 149.669 13.552 149.978 14C150.287 14.448 150.725 14.672 151.29 14.672ZM159.457 16.192C158.614 16.192 158.001 15.92 157.617 15.376C157.233 14.832 157.041 14.064 157.041 13.072V8.144H158.881V12.832C158.881 13.4827 158.977 13.9413 159.169 14.208C159.361 14.4747 159.67 14.608 160.097 14.608C160.438 14.608 160.737 14.5227 160.993 14.352C161.26 14.1813 161.542 13.904 161.841 13.52V8.144H163.681V16H162.177L162.033 14.848H161.985C161.644 15.2533 161.27 15.5787 160.865 15.824C160.46 16.0693 159.99 16.192 159.457 16.192ZM169.372 16.192C168.646 16.192 167.99 16.032 167.404 15.712C166.817 15.3813 166.353 14.912 166.012 14.304C165.67 13.6853 165.5 12.944 165.5 12.08C165.5 11.2267 165.67 10.4907 166.012 9.872C166.364 9.25333 166.817 8.77867 167.372 8.448C167.926 8.11733 168.508 7.952 169.116 7.952C169.83 7.952 170.428 8.112 170.908 8.432C171.388 8.74133 171.75 9.17867 171.996 9.744C172.241 10.2987 172.364 10.944 172.364 11.68C172.364 12.064 172.337 12.3627 172.284 12.576H167.292C167.377 13.2693 167.628 13.808 168.044 14.192C168.46 14.576 168.982 14.768 169.612 14.768C169.953 14.768 170.268 14.72 170.556 14.624C170.854 14.5173 171.148 14.3733 171.436 14.192L172.06 15.344C171.686 15.5893 171.27 15.792 170.812 15.952C170.353 16.112 169.873 16.192 169.372 16.192ZM167.276 11.328H170.764C170.764 10.72 170.63 10.2453 170.364 9.904C170.097 9.552 169.697 9.376 169.164 9.376C168.705 9.376 168.294 9.54667 167.932 9.888C167.58 10.2187 167.361 10.6987 167.276 11.328ZM176.313 16.192C175.78 16.192 175.246 16.0907 174.713 15.888C174.18 15.6747 173.721 15.4133 173.337 15.104L174.201 13.92C174.553 14.1867 174.905 14.4 175.257 14.56C175.609 14.72 175.982 14.8 176.377 14.8C176.804 14.8 177.118 14.7093 177.321 14.528C177.524 14.3467 177.625 14.1227 177.625 13.856C177.625 13.632 177.54 13.4507 177.369 13.312C177.209 13.1627 177.001 13.0347 176.745 12.928C176.489 12.8107 176.222 12.6987 175.945 12.592C175.604 12.464 175.262 12.3093 174.921 12.128C174.59 11.936 174.318 11.696 174.105 11.408C173.892 11.1093 173.785 10.7413 173.785 10.304C173.785 9.61067 174.041 9.04533 174.553 8.608C175.065 8.17067 175.758 7.952 176.633 7.952C177.188 7.952 177.684 8.048 178.121 8.24C178.558 8.432 178.937 8.65067 179.257 8.896L178.409 10.016C178.132 9.81333 177.849 9.65333 177.561 9.536C177.284 9.408 176.99 9.344 176.681 9.344C176.286 9.344 175.993 9.42933 175.801 9.6C175.609 9.76 175.513 9.96267 175.513 10.208C175.513 10.5173 175.673 10.752 175.993 10.912C176.313 11.072 176.686 11.2267 177.113 11.376C177.476 11.504 177.828 11.664 178.169 11.856C178.51 12.0373 178.793 12.2773 179.017 12.576C179.252 12.8747 179.369 13.2693 179.369 13.76C179.369 14.432 179.108 15.008 178.585 15.488C178.062 15.9573 177.305 16.192 176.313 16.192ZM183.467 16.192C182.561 16.192 181.915 15.9307 181.531 15.408C181.158 14.8747 180.971 14.1867 180.971 13.344V9.6H179.851V8.224L181.067 8.144L181.291 6H182.827V8.144H184.827V9.6H182.827V13.344C182.827 14.2613 183.195 14.72 183.931 14.72C184.07 14.72 184.214 14.704 184.363 14.672C184.513 14.6293 184.641 14.5867 184.747 14.544L185.067 15.904C184.854 15.9787 184.609 16.0427 184.331 16.096C184.065 16.16 183.777 16.192 183.467 16.192ZM188.516 16.192C187.983 16.192 187.45 16.0907 186.916 15.888C186.383 15.6747 185.924 15.4133 185.54 15.104L186.404 13.92C186.756 14.1867 187.108 14.4 187.46 14.56C187.812 14.72 188.186 14.8 188.58 14.8C189.007 14.8 189.322 14.7093 189.524 14.528C189.727 14.3467 189.828 14.1227 189.828 13.856C189.828 13.632 189.743 13.4507 189.572 13.312C189.412 13.1627 189.204 13.0347 188.948 12.928C188.692 12.8107 188.426 12.6987 188.148 12.592C187.807 12.464 187.466 12.3093 187.124 12.128C186.794 11.936 186.522 11.696 186.308 11.408C186.095 11.1093 185.988 10.7413 185.988 10.304C185.988 9.61067 186.244 9.04533 186.756 8.608C187.268 8.17067 187.962 7.952 188.836 7.952C189.391 7.952 189.887 8.048 190.324 8.24C190.762 8.432 191.14 8.65067 191.46 8.896L190.612 10.016C190.335 9.81333 190.052 9.65333 189.764 9.536C189.487 9.408 189.194 9.344 188.884 9.344C188.49 9.344 188.196 9.42933 188.004 9.6C187.812 9.76 187.716 9.96267 187.716 10.208C187.716 10.5173 187.876 10.752 188.196 10.912C188.516 11.072 188.89 11.2267 189.316 11.376C189.679 11.504 190.031 11.664 190.372 11.856C190.714 12.0373 190.996 12.2773 191.22 12.576C191.455 12.8747 191.572 13.2693 191.572 13.76C191.572 14.432 191.311 15.008 190.788 15.488C190.266 15.9573 189.508 16.192 188.516 16.192Z" fill="black"/>
</svg>
